<mxfile host="app.diagrams.net" agent="Mozilla/5.0 (Windows NT 10.0; Win64; x64) AppleWebKit/537.36 (KHTML, like Gecko) Chrome/134.0.0.0 Safari/537.36 Edg/134.0.0.0" version="26.2.9">
  <diagram name="第 1 页" id="ScIdMJBZJtbjV2cv8jAA">
    <mxGraphModel dx="1258" dy="748" grid="1" gridSize="10" guides="1" tooltips="1" connect="1" arrows="1" fold="1" page="1" pageScale="1" pageWidth="300" pageHeight="165" math="0" shadow="0">
      <root>
        <mxCell id="0" />
        <mxCell id="1" parent="0" />
        <mxCell id="NsenR0JHLSsDGOoAYdqC-58" value="" style="group" vertex="1" connectable="0" parent="1">
          <mxGeometry x="20" y="30" width="180" height="280" as="geometry" />
        </mxCell>
        <mxCell id="NsenR0JHLSsDGOoAYdqC-92" value="" style="rounded=0;whiteSpace=wrap;html=1;" vertex="1" parent="NsenR0JHLSsDGOoAYdqC-58">
          <mxGeometry x="-10" y="-16.5" width="190" height="296.5" as="geometry" />
        </mxCell>
        <mxCell id="NsenR0JHLSsDGOoAYdqC-1" value="" style="rounded=0;whiteSpace=wrap;html=1;strokeWidth=1;fillColor=#F5F9FC;container=0;" vertex="1" parent="NsenR0JHLSsDGOoAYdqC-58">
          <mxGeometry width="160" height="80" as="geometry" />
        </mxCell>
        <mxCell id="NsenR0JHLSsDGOoAYdqC-10" style="edgeStyle=orthogonalEdgeStyle;rounded=0;orthogonalLoop=1;jettySize=auto;html=1;entryX=0.25;entryY=1;entryDx=0;entryDy=0;endArrow=none;startFill=0;exitX=1;exitY=0.5;exitDx=0;exitDy=0;" edge="1" parent="NsenR0JHLSsDGOoAYdqC-58" source="NsenR0JHLSsDGOoAYdqC-5" target="NsenR0JHLSsDGOoAYdqC-7">
          <mxGeometry relative="1" as="geometry">
            <Array as="points">
              <mxPoint x="60" y="37" />
              <mxPoint x="60" y="10" />
              <mxPoint x="130" y="10" />
              <mxPoint x="130" y="22" />
            </Array>
          </mxGeometry>
        </mxCell>
        <mxCell id="NsenR0JHLSsDGOoAYdqC-5" value="&lt;font face=&quot;Times New Roman&quot;&gt;LUT&lt;/font&gt;" style="rounded=0;whiteSpace=wrap;html=1;fillColor=#D0E2F0;container=0;" vertex="1" parent="NsenR0JHLSsDGOoAYdqC-58">
          <mxGeometry x="10" y="17.75" width="40" height="38.5" as="geometry" />
        </mxCell>
        <mxCell id="NsenR0JHLSsDGOoAYdqC-6" value="&lt;font face=&quot;Times New Roman&quot;&gt;Config.&lt;/font&gt;&lt;div&gt;&lt;font face=&quot;Times New Roman&quot;&gt;Latch&lt;/font&gt;&lt;/div&gt;" style="rounded=0;whiteSpace=wrap;html=1;fillColor=#D6D9EC;container=0;" vertex="1" parent="NsenR0JHLSsDGOoAYdqC-58">
          <mxGeometry x="84" y="14" width="40" height="46" as="geometry" />
        </mxCell>
        <mxCell id="NsenR0JHLSsDGOoAYdqC-31" style="rounded=0;orthogonalLoop=1;jettySize=auto;html=1;entryX=1.001;entryY=0.46;entryDx=0;entryDy=0;endArrow=none;startFill=0;entryPerimeter=0;" edge="1" parent="NsenR0JHLSsDGOoAYdqC-58" source="NsenR0JHLSsDGOoAYdqC-7" target="NsenR0JHLSsDGOoAYdqC-1">
          <mxGeometry relative="1" as="geometry">
            <Array as="points">
              <mxPoint x="160" y="36" />
            </Array>
          </mxGeometry>
        </mxCell>
        <mxCell id="NsenR0JHLSsDGOoAYdqC-7" value="" style="shape=trapezoid;perimeter=trapezoidPerimeter;whiteSpace=wrap;html=1;fixedSize=1;rotation=90;size=15;strokeWidth=1;fillColor=#BDD6F2;strokeColor=#000000;fontFamily=Times New Roman;container=0;" vertex="1" parent="NsenR0JHLSsDGOoAYdqC-58">
          <mxGeometry x="120" y="28.5" width="55" height="15" as="geometry" />
        </mxCell>
        <mxCell id="NsenR0JHLSsDGOoAYdqC-8" style="rounded=0;orthogonalLoop=1;jettySize=auto;html=1;entryX=0.52;entryY=0.965;entryDx=0;entryDy=0;entryPerimeter=0;endArrow=none;startFill=0;" edge="1" parent="NsenR0JHLSsDGOoAYdqC-58" source="NsenR0JHLSsDGOoAYdqC-6" target="NsenR0JHLSsDGOoAYdqC-7">
          <mxGeometry relative="1" as="geometry" />
        </mxCell>
        <mxCell id="NsenR0JHLSsDGOoAYdqC-9" value="" style="triangle;whiteSpace=wrap;html=1;strokeWidth=1;fillColor=light-dark(#f9fafb, #1d293b);strokeColor=#000000;fontFamily=Times New Roman;container=0;" vertex="1" parent="NsenR0JHLSsDGOoAYdqC-58">
          <mxGeometry x="84" y="48" width="10" height="10" as="geometry" />
        </mxCell>
        <mxCell id="NsenR0JHLSsDGOoAYdqC-11" style="rounded=0;orthogonalLoop=1;jettySize=auto;html=1;entryX=0;entryY=0.5;entryDx=0;entryDy=0;endArrow=none;startFill=0;exitX=1;exitY=0.5;exitDx=0;exitDy=0;" edge="1" parent="NsenR0JHLSsDGOoAYdqC-58" source="NsenR0JHLSsDGOoAYdqC-5" target="NsenR0JHLSsDGOoAYdqC-6">
          <mxGeometry relative="1" as="geometry" />
        </mxCell>
        <mxCell id="NsenR0JHLSsDGOoAYdqC-12" value="&lt;div style=&quot;line-height: 80%;&quot;&gt;&lt;font face=&quot;Times New Roman&quot; style=&quot;line-height: 80%; font-size: 8px; color: rgb(0, 102, 0);&quot;&gt;Config. bit:&amp;nbsp;&lt;/font&gt;&lt;div&gt;&lt;span style=&quot;font-family: &amp;quot;Times New Roman&amp;quot;; background-color: transparent; line-height: 80%;&quot;&gt;&lt;font style=&quot;font-size: 8px; color: rgb(0, 102, 0);&quot;&gt;FF/Latch mode&lt;/font&gt;&lt;/span&gt;&lt;/div&gt;&lt;/div&gt;" style="text;html=1;align=center;verticalAlign=middle;whiteSpace=wrap;rounded=0;container=0;" vertex="1" parent="NsenR0JHLSsDGOoAYdqC-58">
          <mxGeometry x="53" y="53" width="80" height="30" as="geometry" />
        </mxCell>
        <mxCell id="NsenR0JHLSsDGOoAYdqC-14" value="" style="endArrow=classic;html=1;rounded=0;strokeColor=#006600;endSize=3;" edge="1" parent="NsenR0JHLSsDGOoAYdqC-58">
          <mxGeometry width="50" height="50" relative="1" as="geometry">
            <mxPoint x="121" y="78" as="sourcePoint" />
            <mxPoint x="121" y="61" as="targetPoint" />
          </mxGeometry>
        </mxCell>
        <mxCell id="NsenR0JHLSsDGOoAYdqC-15" value="&lt;div style=&quot;line-height: 80%;&quot;&gt;&lt;font face=&quot;Times New Roman&quot; style=&quot;line-height: 80%; font-size: 8px;&quot;&gt;&lt;font style=&quot;color: rgb(0, 0, 0);&quot;&gt;Config.&amp;nbsp;&lt;/font&gt;&lt;br&gt;&lt;/font&gt;&lt;/div&gt;" style="text;html=1;align=center;verticalAlign=middle;whiteSpace=wrap;rounded=0;container=0;" vertex="1" parent="NsenR0JHLSsDGOoAYdqC-58">
          <mxGeometry x="1" y="56.25" width="40" height="20" as="geometry" />
        </mxCell>
        <mxCell id="NsenR0JHLSsDGOoAYdqC-16" value="" style="endArrow=classic;html=1;rounded=0;strokeColor=#000000;endSize=3;" edge="1" parent="NsenR0JHLSsDGOoAYdqC-58">
          <mxGeometry width="50" height="50" relative="1" as="geometry">
            <mxPoint x="34" y="76" as="sourcePoint" />
            <mxPoint x="34" y="59" as="targetPoint" />
          </mxGeometry>
        </mxCell>
        <mxCell id="NsenR0JHLSsDGOoAYdqC-29" value="&lt;div style=&quot;line-height: 80%;&quot;&gt;&lt;font face=&quot;Times New Roman&quot; style=&quot;line-height: 80%; font-size: 11px;&quot;&gt;&lt;i&gt;BLE&lt;/i&gt;&lt;/font&gt;&lt;/div&gt;" style="text;html=1;align=center;verticalAlign=middle;whiteSpace=wrap;rounded=0;container=0;" vertex="1" parent="NsenR0JHLSsDGOoAYdqC-58">
          <mxGeometry x="1" y="2" width="23" height="13" as="geometry" />
        </mxCell>
        <mxCell id="NsenR0JHLSsDGOoAYdqC-33" style="rounded=0;orthogonalLoop=1;jettySize=auto;html=1;entryX=0;entryY=0.5;entryDx=0;entryDy=0;endArrow=none;startFill=0;" edge="1" parent="NsenR0JHLSsDGOoAYdqC-58">
          <mxGeometry relative="1" as="geometry">
            <mxPoint x="10" y="37.5" as="sourcePoint" />
            <mxPoint y="37.5" as="targetPoint" />
          </mxGeometry>
        </mxCell>
        <mxCell id="NsenR0JHLSsDGOoAYdqC-91" value="&lt;div style=&quot;line-height: 80%;&quot;&gt;&lt;font face=&quot;Times New Roman&quot; style=&quot;line-height: 80%;&quot;&gt;&lt;font style=&quot;color: rgb(0, 0, 0); font-size: 14px;&quot;&gt;&lt;b&gt;......&lt;/b&gt;&lt;/font&gt;&lt;br&gt;&lt;/font&gt;&lt;/div&gt;" style="text;html=1;align=center;verticalAlign=middle;whiteSpace=wrap;rounded=0;container=0;" vertex="1" parent="NsenR0JHLSsDGOoAYdqC-58">
          <mxGeometry x="60" y="170" width="40" height="20" as="geometry" />
        </mxCell>
        <mxCell id="NsenR0JHLSsDGOoAYdqC-59" value="" style="group" vertex="1" connectable="0" parent="1">
          <mxGeometry x="20" y="120" width="160" height="83" as="geometry" />
        </mxCell>
        <mxCell id="NsenR0JHLSsDGOoAYdqC-60" value="" style="rounded=0;whiteSpace=wrap;html=1;strokeWidth=1;fillColor=#F5F9FC;container=0;" vertex="1" parent="NsenR0JHLSsDGOoAYdqC-59">
          <mxGeometry width="160" height="80" as="geometry" />
        </mxCell>
        <mxCell id="NsenR0JHLSsDGOoAYdqC-61" style="edgeStyle=orthogonalEdgeStyle;rounded=0;orthogonalLoop=1;jettySize=auto;html=1;entryX=0.25;entryY=1;entryDx=0;entryDy=0;endArrow=none;startFill=0;exitX=1;exitY=0.5;exitDx=0;exitDy=0;" edge="1" parent="NsenR0JHLSsDGOoAYdqC-59" source="NsenR0JHLSsDGOoAYdqC-62" target="NsenR0JHLSsDGOoAYdqC-65">
          <mxGeometry relative="1" as="geometry">
            <Array as="points">
              <mxPoint x="60" y="37" />
              <mxPoint x="60" y="10" />
              <mxPoint x="130" y="10" />
              <mxPoint x="130" y="22" />
            </Array>
          </mxGeometry>
        </mxCell>
        <mxCell id="NsenR0JHLSsDGOoAYdqC-62" value="&lt;font face=&quot;Times New Roman&quot;&gt;LUT&lt;/font&gt;" style="rounded=0;whiteSpace=wrap;html=1;fillColor=#D0E2F0;container=0;" vertex="1" parent="NsenR0JHLSsDGOoAYdqC-59">
          <mxGeometry x="10" y="17.75" width="40" height="38.5" as="geometry" />
        </mxCell>
        <mxCell id="NsenR0JHLSsDGOoAYdqC-63" value="&lt;font face=&quot;Times New Roman&quot;&gt;Config.&lt;/font&gt;&lt;div&gt;&lt;font face=&quot;Times New Roman&quot;&gt;Latch&lt;/font&gt;&lt;/div&gt;" style="rounded=0;whiteSpace=wrap;html=1;fillColor=#D6D9EC;container=0;" vertex="1" parent="NsenR0JHLSsDGOoAYdqC-59">
          <mxGeometry x="84" y="14" width="40" height="46" as="geometry" />
        </mxCell>
        <mxCell id="NsenR0JHLSsDGOoAYdqC-64" style="rounded=0;orthogonalLoop=1;jettySize=auto;html=1;entryX=1.001;entryY=0.46;entryDx=0;entryDy=0;endArrow=none;startFill=0;entryPerimeter=0;" edge="1" parent="NsenR0JHLSsDGOoAYdqC-59" source="NsenR0JHLSsDGOoAYdqC-65" target="NsenR0JHLSsDGOoAYdqC-60">
          <mxGeometry relative="1" as="geometry">
            <Array as="points">
              <mxPoint x="160" y="36" />
            </Array>
          </mxGeometry>
        </mxCell>
        <mxCell id="NsenR0JHLSsDGOoAYdqC-65" value="" style="shape=trapezoid;perimeter=trapezoidPerimeter;whiteSpace=wrap;html=1;fixedSize=1;rotation=90;size=15;strokeWidth=1;fillColor=#BDD6F2;strokeColor=#000000;fontFamily=Times New Roman;container=0;" vertex="1" parent="NsenR0JHLSsDGOoAYdqC-59">
          <mxGeometry x="120" y="28.5" width="55" height="15" as="geometry" />
        </mxCell>
        <mxCell id="NsenR0JHLSsDGOoAYdqC-66" style="rounded=0;orthogonalLoop=1;jettySize=auto;html=1;entryX=0.52;entryY=0.965;entryDx=0;entryDy=0;entryPerimeter=0;endArrow=none;startFill=0;" edge="1" parent="NsenR0JHLSsDGOoAYdqC-59" source="NsenR0JHLSsDGOoAYdqC-63" target="NsenR0JHLSsDGOoAYdqC-65">
          <mxGeometry relative="1" as="geometry" />
        </mxCell>
        <mxCell id="NsenR0JHLSsDGOoAYdqC-67" value="" style="triangle;whiteSpace=wrap;html=1;strokeWidth=1;fillColor=light-dark(#f9fafb, #1d293b);strokeColor=#000000;fontFamily=Times New Roman;container=0;" vertex="1" parent="NsenR0JHLSsDGOoAYdqC-59">
          <mxGeometry x="84" y="48" width="10" height="10" as="geometry" />
        </mxCell>
        <mxCell id="NsenR0JHLSsDGOoAYdqC-68" style="rounded=0;orthogonalLoop=1;jettySize=auto;html=1;entryX=0;entryY=0.5;entryDx=0;entryDy=0;endArrow=none;startFill=0;exitX=1;exitY=0.5;exitDx=0;exitDy=0;" edge="1" parent="NsenR0JHLSsDGOoAYdqC-59" source="NsenR0JHLSsDGOoAYdqC-62" target="NsenR0JHLSsDGOoAYdqC-63">
          <mxGeometry relative="1" as="geometry" />
        </mxCell>
        <mxCell id="NsenR0JHLSsDGOoAYdqC-69" value="&lt;div style=&quot;line-height: 80%;&quot;&gt;&lt;font face=&quot;Times New Roman&quot; style=&quot;line-height: 80%; font-size: 8px; color: rgb(0, 102, 0);&quot;&gt;Config. bit:&amp;nbsp;&lt;/font&gt;&lt;div&gt;&lt;span style=&quot;font-family: &amp;quot;Times New Roman&amp;quot;; background-color: transparent; line-height: 80%;&quot;&gt;&lt;font style=&quot;font-size: 8px; color: rgb(0, 102, 0);&quot;&gt;FF/Latch mode&lt;/font&gt;&lt;/span&gt;&lt;/div&gt;&lt;/div&gt;" style="text;html=1;align=center;verticalAlign=middle;whiteSpace=wrap;rounded=0;container=0;" vertex="1" parent="NsenR0JHLSsDGOoAYdqC-59">
          <mxGeometry x="53" y="53" width="80" height="30" as="geometry" />
        </mxCell>
        <mxCell id="NsenR0JHLSsDGOoAYdqC-70" value="" style="endArrow=classic;html=1;rounded=0;strokeColor=#006600;endSize=3;" edge="1" parent="NsenR0JHLSsDGOoAYdqC-59">
          <mxGeometry width="50" height="50" relative="1" as="geometry">
            <mxPoint x="121" y="78" as="sourcePoint" />
            <mxPoint x="121" y="61" as="targetPoint" />
          </mxGeometry>
        </mxCell>
        <mxCell id="NsenR0JHLSsDGOoAYdqC-71" value="&lt;div style=&quot;line-height: 80%;&quot;&gt;&lt;font face=&quot;Times New Roman&quot; style=&quot;line-height: 80%; font-size: 8px;&quot;&gt;&lt;font style=&quot;color: rgb(0, 0, 0);&quot;&gt;Config.&amp;nbsp;&lt;/font&gt;&lt;br&gt;&lt;/font&gt;&lt;/div&gt;" style="text;html=1;align=center;verticalAlign=middle;whiteSpace=wrap;rounded=0;container=0;" vertex="1" parent="NsenR0JHLSsDGOoAYdqC-59">
          <mxGeometry x="1" y="56.25" width="40" height="20" as="geometry" />
        </mxCell>
        <mxCell id="NsenR0JHLSsDGOoAYdqC-72" value="" style="endArrow=classic;html=1;rounded=0;strokeColor=#000000;endSize=3;" edge="1" parent="NsenR0JHLSsDGOoAYdqC-59">
          <mxGeometry width="50" height="50" relative="1" as="geometry">
            <mxPoint x="34" y="76" as="sourcePoint" />
            <mxPoint x="34" y="59" as="targetPoint" />
          </mxGeometry>
        </mxCell>
        <mxCell id="NsenR0JHLSsDGOoAYdqC-73" value="&lt;div style=&quot;line-height: 80%;&quot;&gt;&lt;font face=&quot;Times New Roman&quot; style=&quot;line-height: 80%; font-size: 11px;&quot;&gt;&lt;i&gt;BLE&lt;/i&gt;&lt;/font&gt;&lt;/div&gt;" style="text;html=1;align=center;verticalAlign=middle;whiteSpace=wrap;rounded=0;container=0;" vertex="1" parent="NsenR0JHLSsDGOoAYdqC-59">
          <mxGeometry x="1" y="2" width="23" height="13" as="geometry" />
        </mxCell>
        <mxCell id="NsenR0JHLSsDGOoAYdqC-74" style="rounded=0;orthogonalLoop=1;jettySize=auto;html=1;entryX=0;entryY=0.5;entryDx=0;entryDy=0;endArrow=none;startFill=0;" edge="1" parent="NsenR0JHLSsDGOoAYdqC-59">
          <mxGeometry relative="1" as="geometry">
            <mxPoint x="10" y="37.5" as="sourcePoint" />
            <mxPoint y="37.5" as="targetPoint" />
          </mxGeometry>
        </mxCell>
        <mxCell id="NsenR0JHLSsDGOoAYdqC-75" value="" style="group" vertex="1" connectable="0" parent="1">
          <mxGeometry x="20" y="220" width="160" height="83" as="geometry" />
        </mxCell>
        <mxCell id="NsenR0JHLSsDGOoAYdqC-76" value="" style="rounded=0;whiteSpace=wrap;html=1;strokeWidth=1;fillColor=#F5F9FC;container=0;" vertex="1" parent="NsenR0JHLSsDGOoAYdqC-75">
          <mxGeometry width="160" height="80" as="geometry" />
        </mxCell>
        <mxCell id="NsenR0JHLSsDGOoAYdqC-77" style="edgeStyle=orthogonalEdgeStyle;rounded=0;orthogonalLoop=1;jettySize=auto;html=1;entryX=0.25;entryY=1;entryDx=0;entryDy=0;endArrow=none;startFill=0;exitX=1;exitY=0.5;exitDx=0;exitDy=0;" edge="1" parent="NsenR0JHLSsDGOoAYdqC-75" source="NsenR0JHLSsDGOoAYdqC-78" target="NsenR0JHLSsDGOoAYdqC-81">
          <mxGeometry relative="1" as="geometry">
            <Array as="points">
              <mxPoint x="60" y="37" />
              <mxPoint x="60" y="10" />
              <mxPoint x="130" y="10" />
              <mxPoint x="130" y="22" />
            </Array>
          </mxGeometry>
        </mxCell>
        <mxCell id="NsenR0JHLSsDGOoAYdqC-78" value="&lt;font face=&quot;Times New Roman&quot;&gt;LUT&lt;/font&gt;" style="rounded=0;whiteSpace=wrap;html=1;fillColor=#D0E2F0;container=0;" vertex="1" parent="NsenR0JHLSsDGOoAYdqC-75">
          <mxGeometry x="10" y="17.75" width="40" height="38.5" as="geometry" />
        </mxCell>
        <mxCell id="NsenR0JHLSsDGOoAYdqC-79" value="&lt;font face=&quot;Times New Roman&quot;&gt;Config.&lt;/font&gt;&lt;div&gt;&lt;font face=&quot;Times New Roman&quot;&gt;Latch&lt;/font&gt;&lt;/div&gt;" style="rounded=0;whiteSpace=wrap;html=1;fillColor=#D6D9EC;container=0;" vertex="1" parent="NsenR0JHLSsDGOoAYdqC-75">
          <mxGeometry x="84" y="14" width="40" height="46" as="geometry" />
        </mxCell>
        <mxCell id="NsenR0JHLSsDGOoAYdqC-80" style="rounded=0;orthogonalLoop=1;jettySize=auto;html=1;entryX=1.001;entryY=0.46;entryDx=0;entryDy=0;endArrow=none;startFill=0;entryPerimeter=0;" edge="1" parent="NsenR0JHLSsDGOoAYdqC-75" source="NsenR0JHLSsDGOoAYdqC-81" target="NsenR0JHLSsDGOoAYdqC-76">
          <mxGeometry relative="1" as="geometry">
            <Array as="points">
              <mxPoint x="160" y="36" />
            </Array>
          </mxGeometry>
        </mxCell>
        <mxCell id="NsenR0JHLSsDGOoAYdqC-81" value="" style="shape=trapezoid;perimeter=trapezoidPerimeter;whiteSpace=wrap;html=1;fixedSize=1;rotation=90;size=15;strokeWidth=1;fillColor=#BDD6F2;strokeColor=#000000;fontFamily=Times New Roman;container=0;" vertex="1" parent="NsenR0JHLSsDGOoAYdqC-75">
          <mxGeometry x="120" y="28.5" width="55" height="15" as="geometry" />
        </mxCell>
        <mxCell id="NsenR0JHLSsDGOoAYdqC-82" style="rounded=0;orthogonalLoop=1;jettySize=auto;html=1;entryX=0.52;entryY=0.965;entryDx=0;entryDy=0;entryPerimeter=0;endArrow=none;startFill=0;" edge="1" parent="NsenR0JHLSsDGOoAYdqC-75" source="NsenR0JHLSsDGOoAYdqC-79" target="NsenR0JHLSsDGOoAYdqC-81">
          <mxGeometry relative="1" as="geometry" />
        </mxCell>
        <mxCell id="NsenR0JHLSsDGOoAYdqC-83" value="" style="triangle;whiteSpace=wrap;html=1;strokeWidth=1;fillColor=light-dark(#f9fafb, #1d293b);strokeColor=#000000;fontFamily=Times New Roman;container=0;" vertex="1" parent="NsenR0JHLSsDGOoAYdqC-75">
          <mxGeometry x="84" y="48" width="10" height="10" as="geometry" />
        </mxCell>
        <mxCell id="NsenR0JHLSsDGOoAYdqC-84" style="rounded=0;orthogonalLoop=1;jettySize=auto;html=1;entryX=0;entryY=0.5;entryDx=0;entryDy=0;endArrow=none;startFill=0;exitX=1;exitY=0.5;exitDx=0;exitDy=0;" edge="1" parent="NsenR0JHLSsDGOoAYdqC-75" source="NsenR0JHLSsDGOoAYdqC-78" target="NsenR0JHLSsDGOoAYdqC-79">
          <mxGeometry relative="1" as="geometry" />
        </mxCell>
        <mxCell id="NsenR0JHLSsDGOoAYdqC-85" value="&lt;div style=&quot;line-height: 80%;&quot;&gt;&lt;font face=&quot;Times New Roman&quot; style=&quot;line-height: 80%; font-size: 8px; color: rgb(0, 102, 0);&quot;&gt;Config. bit:&amp;nbsp;&lt;/font&gt;&lt;div&gt;&lt;span style=&quot;font-family: &amp;quot;Times New Roman&amp;quot;; background-color: transparent; line-height: 80%;&quot;&gt;&lt;font style=&quot;font-size: 8px; color: rgb(0, 102, 0);&quot;&gt;FF/Latch mode&lt;/font&gt;&lt;/span&gt;&lt;/div&gt;&lt;/div&gt;" style="text;html=1;align=center;verticalAlign=middle;whiteSpace=wrap;rounded=0;container=0;" vertex="1" parent="NsenR0JHLSsDGOoAYdqC-75">
          <mxGeometry x="53" y="53" width="80" height="30" as="geometry" />
        </mxCell>
        <mxCell id="NsenR0JHLSsDGOoAYdqC-86" value="" style="endArrow=classic;html=1;rounded=0;strokeColor=#006600;endSize=3;" edge="1" parent="NsenR0JHLSsDGOoAYdqC-75">
          <mxGeometry width="50" height="50" relative="1" as="geometry">
            <mxPoint x="121" y="78" as="sourcePoint" />
            <mxPoint x="121" y="61" as="targetPoint" />
          </mxGeometry>
        </mxCell>
        <mxCell id="NsenR0JHLSsDGOoAYdqC-87" value="&lt;div style=&quot;line-height: 80%;&quot;&gt;&lt;font face=&quot;Times New Roman&quot; style=&quot;line-height: 80%; font-size: 8px;&quot;&gt;&lt;font style=&quot;color: rgb(0, 0, 0);&quot;&gt;Config.&amp;nbsp;&lt;/font&gt;&lt;br&gt;&lt;/font&gt;&lt;/div&gt;" style="text;html=1;align=center;verticalAlign=middle;whiteSpace=wrap;rounded=0;container=0;" vertex="1" parent="NsenR0JHLSsDGOoAYdqC-75">
          <mxGeometry x="1" y="56.25" width="40" height="20" as="geometry" />
        </mxCell>
        <mxCell id="NsenR0JHLSsDGOoAYdqC-88" value="" style="endArrow=classic;html=1;rounded=0;strokeColor=#000000;endSize=3;" edge="1" parent="NsenR0JHLSsDGOoAYdqC-75">
          <mxGeometry width="50" height="50" relative="1" as="geometry">
            <mxPoint x="34" y="76" as="sourcePoint" />
            <mxPoint x="34" y="59" as="targetPoint" />
          </mxGeometry>
        </mxCell>
        <mxCell id="NsenR0JHLSsDGOoAYdqC-89" value="&lt;div style=&quot;line-height: 80%;&quot;&gt;&lt;font face=&quot;Times New Roman&quot; style=&quot;line-height: 80%; font-size: 11px;&quot;&gt;&lt;i&gt;BLE&lt;/i&gt;&lt;/font&gt;&lt;/div&gt;" style="text;html=1;align=center;verticalAlign=middle;whiteSpace=wrap;rounded=0;container=0;" vertex="1" parent="NsenR0JHLSsDGOoAYdqC-75">
          <mxGeometry x="1" y="2" width="23" height="13" as="geometry" />
        </mxCell>
        <mxCell id="NsenR0JHLSsDGOoAYdqC-90" style="rounded=0;orthogonalLoop=1;jettySize=auto;html=1;entryX=0;entryY=0.5;entryDx=0;entryDy=0;endArrow=none;startFill=0;" edge="1" parent="NsenR0JHLSsDGOoAYdqC-75">
          <mxGeometry relative="1" as="geometry">
            <mxPoint x="10" y="37.5" as="sourcePoint" />
            <mxPoint y="37.5" as="targetPoint" />
          </mxGeometry>
        </mxCell>
        <mxCell id="NsenR0JHLSsDGOoAYdqC-93" value="" style="group" vertex="1" connectable="0" parent="1">
          <mxGeometry x="250" y="30" width="180" height="280" as="geometry" />
        </mxCell>
        <mxCell id="NsenR0JHLSsDGOoAYdqC-94" value="" style="rounded=0;whiteSpace=wrap;html=1;" vertex="1" parent="NsenR0JHLSsDGOoAYdqC-93">
          <mxGeometry x="-10" y="-16.5" width="190" height="296.5" as="geometry" />
        </mxCell>
        <mxCell id="NsenR0JHLSsDGOoAYdqC-95" value="" style="rounded=0;whiteSpace=wrap;html=1;strokeWidth=1;fillColor=#F5F9FC;container=0;" vertex="1" parent="NsenR0JHLSsDGOoAYdqC-93">
          <mxGeometry width="160" height="80" as="geometry" />
        </mxCell>
        <mxCell id="NsenR0JHLSsDGOoAYdqC-96" style="edgeStyle=orthogonalEdgeStyle;rounded=0;orthogonalLoop=1;jettySize=auto;html=1;entryX=0.25;entryY=1;entryDx=0;entryDy=0;endArrow=none;startFill=0;exitX=1;exitY=0.5;exitDx=0;exitDy=0;" edge="1" parent="NsenR0JHLSsDGOoAYdqC-93" source="NsenR0JHLSsDGOoAYdqC-97" target="NsenR0JHLSsDGOoAYdqC-100">
          <mxGeometry relative="1" as="geometry">
            <Array as="points">
              <mxPoint x="60" y="37" />
              <mxPoint x="60" y="10" />
              <mxPoint x="130" y="10" />
              <mxPoint x="130" y="22" />
            </Array>
          </mxGeometry>
        </mxCell>
        <mxCell id="NsenR0JHLSsDGOoAYdqC-97" value="&lt;font face=&quot;Times New Roman&quot;&gt;LUT&lt;/font&gt;" style="rounded=0;whiteSpace=wrap;html=1;fillColor=#D0E2F0;container=0;" vertex="1" parent="NsenR0JHLSsDGOoAYdqC-93">
          <mxGeometry x="10" y="17.75" width="40" height="38.5" as="geometry" />
        </mxCell>
        <mxCell id="NsenR0JHLSsDGOoAYdqC-98" value="&lt;font face=&quot;Times New Roman&quot;&gt;Config.&lt;/font&gt;&lt;div&gt;&lt;font face=&quot;Times New Roman&quot;&gt;Latch&lt;/font&gt;&lt;/div&gt;" style="rounded=0;whiteSpace=wrap;html=1;fillColor=#D6D9EC;container=0;" vertex="1" parent="NsenR0JHLSsDGOoAYdqC-93">
          <mxGeometry x="84" y="14" width="40" height="46" as="geometry" />
        </mxCell>
        <mxCell id="NsenR0JHLSsDGOoAYdqC-99" style="rounded=0;orthogonalLoop=1;jettySize=auto;html=1;entryX=1.001;entryY=0.46;entryDx=0;entryDy=0;endArrow=none;startFill=0;entryPerimeter=0;" edge="1" parent="NsenR0JHLSsDGOoAYdqC-93" source="NsenR0JHLSsDGOoAYdqC-100" target="NsenR0JHLSsDGOoAYdqC-95">
          <mxGeometry relative="1" as="geometry">
            <Array as="points">
              <mxPoint x="160" y="36" />
            </Array>
          </mxGeometry>
        </mxCell>
        <mxCell id="NsenR0JHLSsDGOoAYdqC-100" value="" style="shape=trapezoid;perimeter=trapezoidPerimeter;whiteSpace=wrap;html=1;fixedSize=1;rotation=90;size=15;strokeWidth=1;fillColor=#BDD6F2;strokeColor=#000000;fontFamily=Times New Roman;container=0;" vertex="1" parent="NsenR0JHLSsDGOoAYdqC-93">
          <mxGeometry x="120" y="28.5" width="55" height="15" as="geometry" />
        </mxCell>
        <mxCell id="NsenR0JHLSsDGOoAYdqC-101" style="rounded=0;orthogonalLoop=1;jettySize=auto;html=1;entryX=0.52;entryY=0.965;entryDx=0;entryDy=0;entryPerimeter=0;endArrow=none;startFill=0;" edge="1" parent="NsenR0JHLSsDGOoAYdqC-93" source="NsenR0JHLSsDGOoAYdqC-98" target="NsenR0JHLSsDGOoAYdqC-100">
          <mxGeometry relative="1" as="geometry" />
        </mxCell>
        <mxCell id="NsenR0JHLSsDGOoAYdqC-102" value="" style="triangle;whiteSpace=wrap;html=1;strokeWidth=1;fillColor=light-dark(#f9fafb, #1d293b);strokeColor=#000000;fontFamily=Times New Roman;container=0;" vertex="1" parent="NsenR0JHLSsDGOoAYdqC-93">
          <mxGeometry x="84" y="48" width="10" height="10" as="geometry" />
        </mxCell>
        <mxCell id="NsenR0JHLSsDGOoAYdqC-103" style="rounded=0;orthogonalLoop=1;jettySize=auto;html=1;entryX=0;entryY=0.5;entryDx=0;entryDy=0;endArrow=none;startFill=0;exitX=1;exitY=0.5;exitDx=0;exitDy=0;" edge="1" parent="NsenR0JHLSsDGOoAYdqC-93" source="NsenR0JHLSsDGOoAYdqC-97" target="NsenR0JHLSsDGOoAYdqC-98">
          <mxGeometry relative="1" as="geometry" />
        </mxCell>
        <mxCell id="NsenR0JHLSsDGOoAYdqC-104" value="&lt;div style=&quot;line-height: 80%;&quot;&gt;&lt;font face=&quot;Times New Roman&quot; style=&quot;line-height: 80%; font-size: 8px; color: rgb(0, 102, 0);&quot;&gt;Config. bit:&amp;nbsp;&lt;/font&gt;&lt;div&gt;&lt;span style=&quot;font-family: &amp;quot;Times New Roman&amp;quot;; background-color: transparent; line-height: 80%;&quot;&gt;&lt;font style=&quot;font-size: 8px; color: rgb(0, 102, 0);&quot;&gt;FF/Latch mode&lt;/font&gt;&lt;/span&gt;&lt;/div&gt;&lt;/div&gt;" style="text;html=1;align=center;verticalAlign=middle;whiteSpace=wrap;rounded=0;container=0;" vertex="1" parent="NsenR0JHLSsDGOoAYdqC-93">
          <mxGeometry x="53" y="53" width="80" height="30" as="geometry" />
        </mxCell>
        <mxCell id="NsenR0JHLSsDGOoAYdqC-105" value="" style="endArrow=classic;html=1;rounded=0;strokeColor=#006600;endSize=3;" edge="1" parent="NsenR0JHLSsDGOoAYdqC-93">
          <mxGeometry width="50" height="50" relative="1" as="geometry">
            <mxPoint x="121" y="78" as="sourcePoint" />
            <mxPoint x="121" y="61" as="targetPoint" />
          </mxGeometry>
        </mxCell>
        <mxCell id="NsenR0JHLSsDGOoAYdqC-106" value="&lt;div style=&quot;line-height: 80%;&quot;&gt;&lt;font face=&quot;Times New Roman&quot; style=&quot;line-height: 80%; font-size: 8px;&quot;&gt;&lt;font style=&quot;color: rgb(0, 0, 0);&quot;&gt;Config.&amp;nbsp;&lt;/font&gt;&lt;br&gt;&lt;/font&gt;&lt;/div&gt;" style="text;html=1;align=center;verticalAlign=middle;whiteSpace=wrap;rounded=0;container=0;" vertex="1" parent="NsenR0JHLSsDGOoAYdqC-93">
          <mxGeometry x="1" y="56.25" width="40" height="20" as="geometry" />
        </mxCell>
        <mxCell id="NsenR0JHLSsDGOoAYdqC-107" value="" style="endArrow=classic;html=1;rounded=0;strokeColor=#000000;endSize=3;" edge="1" parent="NsenR0JHLSsDGOoAYdqC-93">
          <mxGeometry width="50" height="50" relative="1" as="geometry">
            <mxPoint x="34" y="76" as="sourcePoint" />
            <mxPoint x="34" y="59" as="targetPoint" />
          </mxGeometry>
        </mxCell>
        <mxCell id="NsenR0JHLSsDGOoAYdqC-108" value="&lt;div style=&quot;line-height: 80%;&quot;&gt;&lt;font face=&quot;Times New Roman&quot; style=&quot;line-height: 80%; font-size: 11px;&quot;&gt;&lt;i&gt;BLE&lt;/i&gt;&lt;/font&gt;&lt;/div&gt;" style="text;html=1;align=center;verticalAlign=middle;whiteSpace=wrap;rounded=0;container=0;" vertex="1" parent="NsenR0JHLSsDGOoAYdqC-93">
          <mxGeometry x="1" y="2" width="23" height="13" as="geometry" />
        </mxCell>
        <mxCell id="NsenR0JHLSsDGOoAYdqC-109" style="rounded=0;orthogonalLoop=1;jettySize=auto;html=1;entryX=0;entryY=0.5;entryDx=0;entryDy=0;endArrow=none;startFill=0;" edge="1" parent="NsenR0JHLSsDGOoAYdqC-93">
          <mxGeometry relative="1" as="geometry">
            <mxPoint x="10" y="37.5" as="sourcePoint" />
            <mxPoint y="37.5" as="targetPoint" />
          </mxGeometry>
        </mxCell>
        <mxCell id="NsenR0JHLSsDGOoAYdqC-110" value="&lt;div style=&quot;line-height: 80%;&quot;&gt;&lt;font face=&quot;Times New Roman&quot; style=&quot;line-height: 80%;&quot;&gt;&lt;font style=&quot;color: rgb(0, 0, 0); font-size: 14px;&quot;&gt;&lt;b&gt;......&lt;/b&gt;&lt;/font&gt;&lt;br&gt;&lt;/font&gt;&lt;/div&gt;" style="text;html=1;align=center;verticalAlign=middle;whiteSpace=wrap;rounded=0;container=0;" vertex="1" parent="NsenR0JHLSsDGOoAYdqC-93">
          <mxGeometry x="60" y="170" width="40" height="20" as="geometry" />
        </mxCell>
        <mxCell id="NsenR0JHLSsDGOoAYdqC-111" value="" style="group" vertex="1" connectable="0" parent="1">
          <mxGeometry x="250" y="120" width="160" height="83" as="geometry" />
        </mxCell>
        <mxCell id="NsenR0JHLSsDGOoAYdqC-112" value="" style="rounded=0;whiteSpace=wrap;html=1;strokeWidth=1;fillColor=#F5F9FC;container=0;" vertex="1" parent="NsenR0JHLSsDGOoAYdqC-111">
          <mxGeometry width="160" height="80" as="geometry" />
        </mxCell>
        <mxCell id="NsenR0JHLSsDGOoAYdqC-113" style="edgeStyle=orthogonalEdgeStyle;rounded=0;orthogonalLoop=1;jettySize=auto;html=1;entryX=0.25;entryY=1;entryDx=0;entryDy=0;endArrow=none;startFill=0;exitX=1;exitY=0.5;exitDx=0;exitDy=0;" edge="1" parent="NsenR0JHLSsDGOoAYdqC-111" source="NsenR0JHLSsDGOoAYdqC-114" target="NsenR0JHLSsDGOoAYdqC-117">
          <mxGeometry relative="1" as="geometry">
            <Array as="points">
              <mxPoint x="60" y="37" />
              <mxPoint x="60" y="10" />
              <mxPoint x="130" y="10" />
              <mxPoint x="130" y="22" />
            </Array>
          </mxGeometry>
        </mxCell>
        <mxCell id="NsenR0JHLSsDGOoAYdqC-114" value="&lt;font face=&quot;Times New Roman&quot;&gt;LUT&lt;/font&gt;" style="rounded=0;whiteSpace=wrap;html=1;fillColor=#D0E2F0;container=0;" vertex="1" parent="NsenR0JHLSsDGOoAYdqC-111">
          <mxGeometry x="10" y="17.75" width="40" height="38.5" as="geometry" />
        </mxCell>
        <mxCell id="NsenR0JHLSsDGOoAYdqC-115" value="&lt;font face=&quot;Times New Roman&quot;&gt;Config.&lt;/font&gt;&lt;div&gt;&lt;font face=&quot;Times New Roman&quot;&gt;Latch&lt;/font&gt;&lt;/div&gt;" style="rounded=0;whiteSpace=wrap;html=1;fillColor=#D6D9EC;container=0;" vertex="1" parent="NsenR0JHLSsDGOoAYdqC-111">
          <mxGeometry x="84" y="14" width="40" height="46" as="geometry" />
        </mxCell>
        <mxCell id="NsenR0JHLSsDGOoAYdqC-116" style="rounded=0;orthogonalLoop=1;jettySize=auto;html=1;entryX=1.001;entryY=0.46;entryDx=0;entryDy=0;endArrow=none;startFill=0;entryPerimeter=0;" edge="1" parent="NsenR0JHLSsDGOoAYdqC-111" source="NsenR0JHLSsDGOoAYdqC-117" target="NsenR0JHLSsDGOoAYdqC-112">
          <mxGeometry relative="1" as="geometry">
            <Array as="points">
              <mxPoint x="160" y="36" />
            </Array>
          </mxGeometry>
        </mxCell>
        <mxCell id="NsenR0JHLSsDGOoAYdqC-117" value="" style="shape=trapezoid;perimeter=trapezoidPerimeter;whiteSpace=wrap;html=1;fixedSize=1;rotation=90;size=15;strokeWidth=1;fillColor=#BDD6F2;strokeColor=#000000;fontFamily=Times New Roman;container=0;" vertex="1" parent="NsenR0JHLSsDGOoAYdqC-111">
          <mxGeometry x="120" y="28.5" width="55" height="15" as="geometry" />
        </mxCell>
        <mxCell id="NsenR0JHLSsDGOoAYdqC-118" style="rounded=0;orthogonalLoop=1;jettySize=auto;html=1;entryX=0.52;entryY=0.965;entryDx=0;entryDy=0;entryPerimeter=0;endArrow=none;startFill=0;" edge="1" parent="NsenR0JHLSsDGOoAYdqC-111" source="NsenR0JHLSsDGOoAYdqC-115" target="NsenR0JHLSsDGOoAYdqC-117">
          <mxGeometry relative="1" as="geometry" />
        </mxCell>
        <mxCell id="NsenR0JHLSsDGOoAYdqC-119" value="" style="triangle;whiteSpace=wrap;html=1;strokeWidth=1;fillColor=light-dark(#f9fafb, #1d293b);strokeColor=#000000;fontFamily=Times New Roman;container=0;" vertex="1" parent="NsenR0JHLSsDGOoAYdqC-111">
          <mxGeometry x="84" y="48" width="10" height="10" as="geometry" />
        </mxCell>
        <mxCell id="NsenR0JHLSsDGOoAYdqC-120" style="rounded=0;orthogonalLoop=1;jettySize=auto;html=1;entryX=0;entryY=0.5;entryDx=0;entryDy=0;endArrow=none;startFill=0;exitX=1;exitY=0.5;exitDx=0;exitDy=0;" edge="1" parent="NsenR0JHLSsDGOoAYdqC-111" source="NsenR0JHLSsDGOoAYdqC-114" target="NsenR0JHLSsDGOoAYdqC-115">
          <mxGeometry relative="1" as="geometry" />
        </mxCell>
        <mxCell id="NsenR0JHLSsDGOoAYdqC-121" value="&lt;div style=&quot;line-height: 80%;&quot;&gt;&lt;font face=&quot;Times New Roman&quot; style=&quot;line-height: 80%; font-size: 8px; color: rgb(0, 102, 0);&quot;&gt;Config. bit:&amp;nbsp;&lt;/font&gt;&lt;div&gt;&lt;span style=&quot;font-family: &amp;quot;Times New Roman&amp;quot;; background-color: transparent; line-height: 80%;&quot;&gt;&lt;font style=&quot;font-size: 8px; color: rgb(0, 102, 0);&quot;&gt;FF/Latch mode&lt;/font&gt;&lt;/span&gt;&lt;/div&gt;&lt;/div&gt;" style="text;html=1;align=center;verticalAlign=middle;whiteSpace=wrap;rounded=0;container=0;" vertex="1" parent="NsenR0JHLSsDGOoAYdqC-111">
          <mxGeometry x="53" y="53" width="80" height="30" as="geometry" />
        </mxCell>
        <mxCell id="NsenR0JHLSsDGOoAYdqC-122" value="" style="endArrow=classic;html=1;rounded=0;strokeColor=#006600;endSize=3;" edge="1" parent="NsenR0JHLSsDGOoAYdqC-111">
          <mxGeometry width="50" height="50" relative="1" as="geometry">
            <mxPoint x="121" y="78" as="sourcePoint" />
            <mxPoint x="121" y="61" as="targetPoint" />
          </mxGeometry>
        </mxCell>
        <mxCell id="NsenR0JHLSsDGOoAYdqC-123" value="&lt;div style=&quot;line-height: 80%;&quot;&gt;&lt;font face=&quot;Times New Roman&quot; style=&quot;line-height: 80%; font-size: 8px;&quot;&gt;&lt;font style=&quot;color: rgb(0, 0, 0);&quot;&gt;Config.&amp;nbsp;&lt;/font&gt;&lt;br&gt;&lt;/font&gt;&lt;/div&gt;" style="text;html=1;align=center;verticalAlign=middle;whiteSpace=wrap;rounded=0;container=0;" vertex="1" parent="NsenR0JHLSsDGOoAYdqC-111">
          <mxGeometry x="1" y="56.25" width="40" height="20" as="geometry" />
        </mxCell>
        <mxCell id="NsenR0JHLSsDGOoAYdqC-124" value="" style="endArrow=classic;html=1;rounded=0;strokeColor=#000000;endSize=3;" edge="1" parent="NsenR0JHLSsDGOoAYdqC-111">
          <mxGeometry width="50" height="50" relative="1" as="geometry">
            <mxPoint x="34" y="76" as="sourcePoint" />
            <mxPoint x="34" y="59" as="targetPoint" />
          </mxGeometry>
        </mxCell>
        <mxCell id="NsenR0JHLSsDGOoAYdqC-125" value="&lt;div style=&quot;line-height: 80%;&quot;&gt;&lt;font face=&quot;Times New Roman&quot; style=&quot;line-height: 80%; font-size: 11px;&quot;&gt;&lt;i&gt;BLE&lt;/i&gt;&lt;/font&gt;&lt;/div&gt;" style="text;html=1;align=center;verticalAlign=middle;whiteSpace=wrap;rounded=0;container=0;" vertex="1" parent="NsenR0JHLSsDGOoAYdqC-111">
          <mxGeometry x="1" y="2" width="23" height="13" as="geometry" />
        </mxCell>
        <mxCell id="NsenR0JHLSsDGOoAYdqC-126" style="rounded=0;orthogonalLoop=1;jettySize=auto;html=1;entryX=0;entryY=0.5;entryDx=0;entryDy=0;endArrow=none;startFill=0;" edge="1" parent="NsenR0JHLSsDGOoAYdqC-111">
          <mxGeometry relative="1" as="geometry">
            <mxPoint x="10" y="37.5" as="sourcePoint" />
            <mxPoint y="37.5" as="targetPoint" />
          </mxGeometry>
        </mxCell>
        <mxCell id="NsenR0JHLSsDGOoAYdqC-127" value="" style="group" vertex="1" connectable="0" parent="1">
          <mxGeometry x="250" y="220" width="160" height="83" as="geometry" />
        </mxCell>
        <mxCell id="NsenR0JHLSsDGOoAYdqC-128" value="" style="rounded=0;whiteSpace=wrap;html=1;strokeWidth=1;fillColor=#F5F9FC;container=0;" vertex="1" parent="NsenR0JHLSsDGOoAYdqC-127">
          <mxGeometry width="160" height="80" as="geometry" />
        </mxCell>
        <mxCell id="NsenR0JHLSsDGOoAYdqC-129" style="edgeStyle=orthogonalEdgeStyle;rounded=0;orthogonalLoop=1;jettySize=auto;html=1;entryX=0.25;entryY=1;entryDx=0;entryDy=0;endArrow=none;startFill=0;exitX=1;exitY=0.5;exitDx=0;exitDy=0;" edge="1" parent="NsenR0JHLSsDGOoAYdqC-127" source="NsenR0JHLSsDGOoAYdqC-130" target="NsenR0JHLSsDGOoAYdqC-133">
          <mxGeometry relative="1" as="geometry">
            <Array as="points">
              <mxPoint x="60" y="37" />
              <mxPoint x="60" y="10" />
              <mxPoint x="130" y="10" />
              <mxPoint x="130" y="22" />
            </Array>
          </mxGeometry>
        </mxCell>
        <mxCell id="NsenR0JHLSsDGOoAYdqC-130" value="&lt;font face=&quot;Times New Roman&quot;&gt;LUT&lt;/font&gt;" style="rounded=0;whiteSpace=wrap;html=1;fillColor=#D0E2F0;container=0;" vertex="1" parent="NsenR0JHLSsDGOoAYdqC-127">
          <mxGeometry x="10" y="17.75" width="40" height="38.5" as="geometry" />
        </mxCell>
        <mxCell id="NsenR0JHLSsDGOoAYdqC-131" value="&lt;font face=&quot;Times New Roman&quot;&gt;Config.&lt;/font&gt;&lt;div&gt;&lt;font face=&quot;Times New Roman&quot;&gt;Latch&lt;/font&gt;&lt;/div&gt;" style="rounded=0;whiteSpace=wrap;html=1;fillColor=#D6D9EC;container=0;" vertex="1" parent="NsenR0JHLSsDGOoAYdqC-127">
          <mxGeometry x="84" y="14" width="40" height="46" as="geometry" />
        </mxCell>
        <mxCell id="NsenR0JHLSsDGOoAYdqC-132" style="rounded=0;orthogonalLoop=1;jettySize=auto;html=1;entryX=1.001;entryY=0.46;entryDx=0;entryDy=0;endArrow=none;startFill=0;entryPerimeter=0;" edge="1" parent="NsenR0JHLSsDGOoAYdqC-127" source="NsenR0JHLSsDGOoAYdqC-133" target="NsenR0JHLSsDGOoAYdqC-128">
          <mxGeometry relative="1" as="geometry">
            <Array as="points">
              <mxPoint x="160" y="36" />
            </Array>
          </mxGeometry>
        </mxCell>
        <mxCell id="NsenR0JHLSsDGOoAYdqC-133" value="" style="shape=trapezoid;perimeter=trapezoidPerimeter;whiteSpace=wrap;html=1;fixedSize=1;rotation=90;size=15;strokeWidth=1;fillColor=#BDD6F2;strokeColor=#000000;fontFamily=Times New Roman;container=0;" vertex="1" parent="NsenR0JHLSsDGOoAYdqC-127">
          <mxGeometry x="120" y="28.5" width="55" height="15" as="geometry" />
        </mxCell>
        <mxCell id="NsenR0JHLSsDGOoAYdqC-134" style="rounded=0;orthogonalLoop=1;jettySize=auto;html=1;entryX=0.52;entryY=0.965;entryDx=0;entryDy=0;entryPerimeter=0;endArrow=none;startFill=0;" edge="1" parent="NsenR0JHLSsDGOoAYdqC-127" source="NsenR0JHLSsDGOoAYdqC-131" target="NsenR0JHLSsDGOoAYdqC-133">
          <mxGeometry relative="1" as="geometry" />
        </mxCell>
        <mxCell id="NsenR0JHLSsDGOoAYdqC-135" value="" style="triangle;whiteSpace=wrap;html=1;strokeWidth=1;fillColor=light-dark(#f9fafb, #1d293b);strokeColor=#000000;fontFamily=Times New Roman;container=0;" vertex="1" parent="NsenR0JHLSsDGOoAYdqC-127">
          <mxGeometry x="84" y="48" width="10" height="10" as="geometry" />
        </mxCell>
        <mxCell id="NsenR0JHLSsDGOoAYdqC-136" style="rounded=0;orthogonalLoop=1;jettySize=auto;html=1;entryX=0;entryY=0.5;entryDx=0;entryDy=0;endArrow=none;startFill=0;exitX=1;exitY=0.5;exitDx=0;exitDy=0;" edge="1" parent="NsenR0JHLSsDGOoAYdqC-127" source="NsenR0JHLSsDGOoAYdqC-130" target="NsenR0JHLSsDGOoAYdqC-131">
          <mxGeometry relative="1" as="geometry" />
        </mxCell>
        <mxCell id="NsenR0JHLSsDGOoAYdqC-137" value="&lt;div style=&quot;line-height: 80%;&quot;&gt;&lt;font face=&quot;Times New Roman&quot; style=&quot;line-height: 80%; font-size: 8px; color: rgb(0, 102, 0);&quot;&gt;Config. bit:&amp;nbsp;&lt;/font&gt;&lt;div&gt;&lt;span style=&quot;font-family: &amp;quot;Times New Roman&amp;quot;; background-color: transparent; line-height: 80%;&quot;&gt;&lt;font style=&quot;font-size: 8px; color: rgb(0, 102, 0);&quot;&gt;FF/Latch mode&lt;/font&gt;&lt;/span&gt;&lt;/div&gt;&lt;/div&gt;" style="text;html=1;align=center;verticalAlign=middle;whiteSpace=wrap;rounded=0;container=0;" vertex="1" parent="NsenR0JHLSsDGOoAYdqC-127">
          <mxGeometry x="53" y="53" width="80" height="30" as="geometry" />
        </mxCell>
        <mxCell id="NsenR0JHLSsDGOoAYdqC-138" value="" style="endArrow=classic;html=1;rounded=0;strokeColor=#006600;endSize=3;" edge="1" parent="NsenR0JHLSsDGOoAYdqC-127">
          <mxGeometry width="50" height="50" relative="1" as="geometry">
            <mxPoint x="121" y="78" as="sourcePoint" />
            <mxPoint x="121" y="61" as="targetPoint" />
          </mxGeometry>
        </mxCell>
        <mxCell id="NsenR0JHLSsDGOoAYdqC-139" value="&lt;div style=&quot;line-height: 80%;&quot;&gt;&lt;font face=&quot;Times New Roman&quot; style=&quot;line-height: 80%; font-size: 8px;&quot;&gt;&lt;font style=&quot;color: rgb(0, 0, 0);&quot;&gt;Config.&amp;nbsp;&lt;/font&gt;&lt;br&gt;&lt;/font&gt;&lt;/div&gt;" style="text;html=1;align=center;verticalAlign=middle;whiteSpace=wrap;rounded=0;container=0;" vertex="1" parent="NsenR0JHLSsDGOoAYdqC-127">
          <mxGeometry x="1" y="56.25" width="40" height="20" as="geometry" />
        </mxCell>
        <mxCell id="NsenR0JHLSsDGOoAYdqC-140" value="" style="endArrow=classic;html=1;rounded=0;strokeColor=#000000;endSize=3;" edge="1" parent="NsenR0JHLSsDGOoAYdqC-127">
          <mxGeometry width="50" height="50" relative="1" as="geometry">
            <mxPoint x="34" y="76" as="sourcePoint" />
            <mxPoint x="34" y="59" as="targetPoint" />
          </mxGeometry>
        </mxCell>
        <mxCell id="NsenR0JHLSsDGOoAYdqC-141" value="&lt;div style=&quot;line-height: 80%;&quot;&gt;&lt;font face=&quot;Times New Roman&quot; style=&quot;line-height: 80%; font-size: 11px;&quot;&gt;&lt;i&gt;BLE&lt;/i&gt;&lt;/font&gt;&lt;/div&gt;" style="text;html=1;align=center;verticalAlign=middle;whiteSpace=wrap;rounded=0;container=0;" vertex="1" parent="NsenR0JHLSsDGOoAYdqC-127">
          <mxGeometry x="1" y="2" width="23" height="13" as="geometry" />
        </mxCell>
        <mxCell id="NsenR0JHLSsDGOoAYdqC-142" style="rounded=0;orthogonalLoop=1;jettySize=auto;html=1;entryX=0;entryY=0.5;entryDx=0;entryDy=0;endArrow=none;startFill=0;" edge="1" parent="NsenR0JHLSsDGOoAYdqC-127">
          <mxGeometry relative="1" as="geometry">
            <mxPoint x="10" y="37.5" as="sourcePoint" />
            <mxPoint y="37.5" as="targetPoint" />
          </mxGeometry>
        </mxCell>
        <mxCell id="NsenR0JHLSsDGOoAYdqC-143" value="" style="group" vertex="1" connectable="0" parent="1">
          <mxGeometry x="20" y="340" width="180" height="280" as="geometry" />
        </mxCell>
        <mxCell id="NsenR0JHLSsDGOoAYdqC-144" value="" style="rounded=0;whiteSpace=wrap;html=1;" vertex="1" parent="NsenR0JHLSsDGOoAYdqC-143">
          <mxGeometry x="-10" y="-16.5" width="190" height="296.5" as="geometry" />
        </mxCell>
        <mxCell id="NsenR0JHLSsDGOoAYdqC-145" value="" style="rounded=0;whiteSpace=wrap;html=1;strokeWidth=1;fillColor=#F5F9FC;container=0;" vertex="1" parent="NsenR0JHLSsDGOoAYdqC-143">
          <mxGeometry width="160" height="80" as="geometry" />
        </mxCell>
        <mxCell id="NsenR0JHLSsDGOoAYdqC-146" style="edgeStyle=orthogonalEdgeStyle;rounded=0;orthogonalLoop=1;jettySize=auto;html=1;entryX=0.25;entryY=1;entryDx=0;entryDy=0;endArrow=none;startFill=0;exitX=1;exitY=0.5;exitDx=0;exitDy=0;" edge="1" parent="NsenR0JHLSsDGOoAYdqC-143" source="NsenR0JHLSsDGOoAYdqC-147" target="NsenR0JHLSsDGOoAYdqC-150">
          <mxGeometry relative="1" as="geometry">
            <Array as="points">
              <mxPoint x="60" y="37" />
              <mxPoint x="60" y="10" />
              <mxPoint x="130" y="10" />
              <mxPoint x="130" y="22" />
            </Array>
          </mxGeometry>
        </mxCell>
        <mxCell id="NsenR0JHLSsDGOoAYdqC-147" value="&lt;font face=&quot;Times New Roman&quot;&gt;LUT&lt;/font&gt;" style="rounded=0;whiteSpace=wrap;html=1;fillColor=#D0E2F0;container=0;" vertex="1" parent="NsenR0JHLSsDGOoAYdqC-143">
          <mxGeometry x="10" y="17.75" width="40" height="38.5" as="geometry" />
        </mxCell>
        <mxCell id="NsenR0JHLSsDGOoAYdqC-148" value="&lt;font face=&quot;Times New Roman&quot;&gt;Config.&lt;/font&gt;&lt;div&gt;&lt;font face=&quot;Times New Roman&quot;&gt;Latch&lt;/font&gt;&lt;/div&gt;" style="rounded=0;whiteSpace=wrap;html=1;fillColor=#D6D9EC;container=0;" vertex="1" parent="NsenR0JHLSsDGOoAYdqC-143">
          <mxGeometry x="84" y="14" width="40" height="46" as="geometry" />
        </mxCell>
        <mxCell id="NsenR0JHLSsDGOoAYdqC-149" style="rounded=0;orthogonalLoop=1;jettySize=auto;html=1;entryX=1.001;entryY=0.46;entryDx=0;entryDy=0;endArrow=none;startFill=0;entryPerimeter=0;" edge="1" parent="NsenR0JHLSsDGOoAYdqC-143" source="NsenR0JHLSsDGOoAYdqC-150" target="NsenR0JHLSsDGOoAYdqC-145">
          <mxGeometry relative="1" as="geometry">
            <Array as="points">
              <mxPoint x="160" y="36" />
            </Array>
          </mxGeometry>
        </mxCell>
        <mxCell id="NsenR0JHLSsDGOoAYdqC-150" value="" style="shape=trapezoid;perimeter=trapezoidPerimeter;whiteSpace=wrap;html=1;fixedSize=1;rotation=90;size=15;strokeWidth=1;fillColor=#BDD6F2;strokeColor=#000000;fontFamily=Times New Roman;container=0;" vertex="1" parent="NsenR0JHLSsDGOoAYdqC-143">
          <mxGeometry x="120" y="28.5" width="55" height="15" as="geometry" />
        </mxCell>
        <mxCell id="NsenR0JHLSsDGOoAYdqC-151" style="rounded=0;orthogonalLoop=1;jettySize=auto;html=1;entryX=0.52;entryY=0.965;entryDx=0;entryDy=0;entryPerimeter=0;endArrow=none;startFill=0;" edge="1" parent="NsenR0JHLSsDGOoAYdqC-143" source="NsenR0JHLSsDGOoAYdqC-148" target="NsenR0JHLSsDGOoAYdqC-150">
          <mxGeometry relative="1" as="geometry" />
        </mxCell>
        <mxCell id="NsenR0JHLSsDGOoAYdqC-152" value="" style="triangle;whiteSpace=wrap;html=1;strokeWidth=1;fillColor=light-dark(#f9fafb, #1d293b);strokeColor=#000000;fontFamily=Times New Roman;container=0;" vertex="1" parent="NsenR0JHLSsDGOoAYdqC-143">
          <mxGeometry x="84" y="48" width="10" height="10" as="geometry" />
        </mxCell>
        <mxCell id="NsenR0JHLSsDGOoAYdqC-153" style="rounded=0;orthogonalLoop=1;jettySize=auto;html=1;entryX=0;entryY=0.5;entryDx=0;entryDy=0;endArrow=none;startFill=0;exitX=1;exitY=0.5;exitDx=0;exitDy=0;" edge="1" parent="NsenR0JHLSsDGOoAYdqC-143" source="NsenR0JHLSsDGOoAYdqC-147" target="NsenR0JHLSsDGOoAYdqC-148">
          <mxGeometry relative="1" as="geometry" />
        </mxCell>
        <mxCell id="NsenR0JHLSsDGOoAYdqC-154" value="&lt;div style=&quot;line-height: 80%;&quot;&gt;&lt;font face=&quot;Times New Roman&quot; style=&quot;line-height: 80%; font-size: 8px; color: rgb(0, 102, 0);&quot;&gt;Config. bit:&amp;nbsp;&lt;/font&gt;&lt;div&gt;&lt;span style=&quot;font-family: &amp;quot;Times New Roman&amp;quot;; background-color: transparent; line-height: 80%;&quot;&gt;&lt;font style=&quot;font-size: 8px; color: rgb(0, 102, 0);&quot;&gt;FF/Latch mode&lt;/font&gt;&lt;/span&gt;&lt;/div&gt;&lt;/div&gt;" style="text;html=1;align=center;verticalAlign=middle;whiteSpace=wrap;rounded=0;container=0;" vertex="1" parent="NsenR0JHLSsDGOoAYdqC-143">
          <mxGeometry x="53" y="53" width="80" height="30" as="geometry" />
        </mxCell>
        <mxCell id="NsenR0JHLSsDGOoAYdqC-155" value="" style="endArrow=classic;html=1;rounded=0;strokeColor=#006600;endSize=3;" edge="1" parent="NsenR0JHLSsDGOoAYdqC-143">
          <mxGeometry width="50" height="50" relative="1" as="geometry">
            <mxPoint x="121" y="78" as="sourcePoint" />
            <mxPoint x="121" y="61" as="targetPoint" />
          </mxGeometry>
        </mxCell>
        <mxCell id="NsenR0JHLSsDGOoAYdqC-156" value="&lt;div style=&quot;line-height: 80%;&quot;&gt;&lt;font face=&quot;Times New Roman&quot; style=&quot;line-height: 80%; font-size: 8px;&quot;&gt;&lt;font style=&quot;color: rgb(0, 0, 0);&quot;&gt;Config.&amp;nbsp;&lt;/font&gt;&lt;br&gt;&lt;/font&gt;&lt;/div&gt;" style="text;html=1;align=center;verticalAlign=middle;whiteSpace=wrap;rounded=0;container=0;" vertex="1" parent="NsenR0JHLSsDGOoAYdqC-143">
          <mxGeometry x="1" y="56.25" width="40" height="20" as="geometry" />
        </mxCell>
        <mxCell id="NsenR0JHLSsDGOoAYdqC-157" value="" style="endArrow=classic;html=1;rounded=0;strokeColor=#000000;endSize=3;" edge="1" parent="NsenR0JHLSsDGOoAYdqC-143">
          <mxGeometry width="50" height="50" relative="1" as="geometry">
            <mxPoint x="34" y="76" as="sourcePoint" />
            <mxPoint x="34" y="59" as="targetPoint" />
          </mxGeometry>
        </mxCell>
        <mxCell id="NsenR0JHLSsDGOoAYdqC-158" value="&lt;div style=&quot;line-height: 80%;&quot;&gt;&lt;font face=&quot;Times New Roman&quot; style=&quot;line-height: 80%; font-size: 11px;&quot;&gt;&lt;i&gt;BLE&lt;/i&gt;&lt;/font&gt;&lt;/div&gt;" style="text;html=1;align=center;verticalAlign=middle;whiteSpace=wrap;rounded=0;container=0;" vertex="1" parent="NsenR0JHLSsDGOoAYdqC-143">
          <mxGeometry x="1" y="2" width="23" height="13" as="geometry" />
        </mxCell>
        <mxCell id="NsenR0JHLSsDGOoAYdqC-159" style="rounded=0;orthogonalLoop=1;jettySize=auto;html=1;entryX=0;entryY=0.5;entryDx=0;entryDy=0;endArrow=none;startFill=0;" edge="1" parent="NsenR0JHLSsDGOoAYdqC-143">
          <mxGeometry relative="1" as="geometry">
            <mxPoint x="10" y="37.5" as="sourcePoint" />
            <mxPoint y="37.5" as="targetPoint" />
          </mxGeometry>
        </mxCell>
        <mxCell id="NsenR0JHLSsDGOoAYdqC-160" value="&lt;div style=&quot;line-height: 80%;&quot;&gt;&lt;font face=&quot;Times New Roman&quot; style=&quot;line-height: 80%;&quot;&gt;&lt;font style=&quot;color: rgb(0, 0, 0); font-size: 14px;&quot;&gt;&lt;b&gt;......&lt;/b&gt;&lt;/font&gt;&lt;br&gt;&lt;/font&gt;&lt;/div&gt;" style="text;html=1;align=center;verticalAlign=middle;whiteSpace=wrap;rounded=0;container=0;" vertex="1" parent="NsenR0JHLSsDGOoAYdqC-143">
          <mxGeometry x="60" y="170" width="40" height="20" as="geometry" />
        </mxCell>
        <mxCell id="NsenR0JHLSsDGOoAYdqC-161" value="" style="group" vertex="1" connectable="0" parent="1">
          <mxGeometry x="20" y="430" width="160" height="83" as="geometry" />
        </mxCell>
        <mxCell id="NsenR0JHLSsDGOoAYdqC-162" value="" style="rounded=0;whiteSpace=wrap;html=1;strokeWidth=1;fillColor=#F5F9FC;container=0;" vertex="1" parent="NsenR0JHLSsDGOoAYdqC-161">
          <mxGeometry width="160" height="80" as="geometry" />
        </mxCell>
        <mxCell id="NsenR0JHLSsDGOoAYdqC-163" style="edgeStyle=orthogonalEdgeStyle;rounded=0;orthogonalLoop=1;jettySize=auto;html=1;entryX=0.25;entryY=1;entryDx=0;entryDy=0;endArrow=none;startFill=0;exitX=1;exitY=0.5;exitDx=0;exitDy=0;" edge="1" parent="NsenR0JHLSsDGOoAYdqC-161" source="NsenR0JHLSsDGOoAYdqC-164" target="NsenR0JHLSsDGOoAYdqC-167">
          <mxGeometry relative="1" as="geometry">
            <Array as="points">
              <mxPoint x="60" y="37" />
              <mxPoint x="60" y="10" />
              <mxPoint x="130" y="10" />
              <mxPoint x="130" y="22" />
            </Array>
          </mxGeometry>
        </mxCell>
        <mxCell id="NsenR0JHLSsDGOoAYdqC-164" value="&lt;font face=&quot;Times New Roman&quot;&gt;LUT&lt;/font&gt;" style="rounded=0;whiteSpace=wrap;html=1;fillColor=#D0E2F0;container=0;" vertex="1" parent="NsenR0JHLSsDGOoAYdqC-161">
          <mxGeometry x="10" y="17.75" width="40" height="38.5" as="geometry" />
        </mxCell>
        <mxCell id="NsenR0JHLSsDGOoAYdqC-165" value="&lt;font face=&quot;Times New Roman&quot;&gt;Config.&lt;/font&gt;&lt;div&gt;&lt;font face=&quot;Times New Roman&quot;&gt;Latch&lt;/font&gt;&lt;/div&gt;" style="rounded=0;whiteSpace=wrap;html=1;fillColor=#D6D9EC;container=0;" vertex="1" parent="NsenR0JHLSsDGOoAYdqC-161">
          <mxGeometry x="84" y="14" width="40" height="46" as="geometry" />
        </mxCell>
        <mxCell id="NsenR0JHLSsDGOoAYdqC-166" style="rounded=0;orthogonalLoop=1;jettySize=auto;html=1;entryX=1.001;entryY=0.46;entryDx=0;entryDy=0;endArrow=none;startFill=0;entryPerimeter=0;" edge="1" parent="NsenR0JHLSsDGOoAYdqC-161" source="NsenR0JHLSsDGOoAYdqC-167" target="NsenR0JHLSsDGOoAYdqC-162">
          <mxGeometry relative="1" as="geometry">
            <Array as="points">
              <mxPoint x="160" y="36" />
            </Array>
          </mxGeometry>
        </mxCell>
        <mxCell id="NsenR0JHLSsDGOoAYdqC-167" value="" style="shape=trapezoid;perimeter=trapezoidPerimeter;whiteSpace=wrap;html=1;fixedSize=1;rotation=90;size=15;strokeWidth=1;fillColor=#BDD6F2;strokeColor=#000000;fontFamily=Times New Roman;container=0;" vertex="1" parent="NsenR0JHLSsDGOoAYdqC-161">
          <mxGeometry x="120" y="28.5" width="55" height="15" as="geometry" />
        </mxCell>
        <mxCell id="NsenR0JHLSsDGOoAYdqC-168" style="rounded=0;orthogonalLoop=1;jettySize=auto;html=1;entryX=0.52;entryY=0.965;entryDx=0;entryDy=0;entryPerimeter=0;endArrow=none;startFill=0;" edge="1" parent="NsenR0JHLSsDGOoAYdqC-161" source="NsenR0JHLSsDGOoAYdqC-165" target="NsenR0JHLSsDGOoAYdqC-167">
          <mxGeometry relative="1" as="geometry" />
        </mxCell>
        <mxCell id="NsenR0JHLSsDGOoAYdqC-169" value="" style="triangle;whiteSpace=wrap;html=1;strokeWidth=1;fillColor=light-dark(#f9fafb, #1d293b);strokeColor=#000000;fontFamily=Times New Roman;container=0;" vertex="1" parent="NsenR0JHLSsDGOoAYdqC-161">
          <mxGeometry x="84" y="48" width="10" height="10" as="geometry" />
        </mxCell>
        <mxCell id="NsenR0JHLSsDGOoAYdqC-170" style="rounded=0;orthogonalLoop=1;jettySize=auto;html=1;entryX=0;entryY=0.5;entryDx=0;entryDy=0;endArrow=none;startFill=0;exitX=1;exitY=0.5;exitDx=0;exitDy=0;" edge="1" parent="NsenR0JHLSsDGOoAYdqC-161" source="NsenR0JHLSsDGOoAYdqC-164" target="NsenR0JHLSsDGOoAYdqC-165">
          <mxGeometry relative="1" as="geometry" />
        </mxCell>
        <mxCell id="NsenR0JHLSsDGOoAYdqC-171" value="&lt;div style=&quot;line-height: 80%;&quot;&gt;&lt;font face=&quot;Times New Roman&quot; style=&quot;line-height: 80%; font-size: 8px; color: rgb(0, 102, 0);&quot;&gt;Config. bit:&amp;nbsp;&lt;/font&gt;&lt;div&gt;&lt;span style=&quot;font-family: &amp;quot;Times New Roman&amp;quot;; background-color: transparent; line-height: 80%;&quot;&gt;&lt;font style=&quot;font-size: 8px; color: rgb(0, 102, 0);&quot;&gt;FF/Latch mode&lt;/font&gt;&lt;/span&gt;&lt;/div&gt;&lt;/div&gt;" style="text;html=1;align=center;verticalAlign=middle;whiteSpace=wrap;rounded=0;container=0;" vertex="1" parent="NsenR0JHLSsDGOoAYdqC-161">
          <mxGeometry x="53" y="53" width="80" height="30" as="geometry" />
        </mxCell>
        <mxCell id="NsenR0JHLSsDGOoAYdqC-172" value="" style="endArrow=classic;html=1;rounded=0;strokeColor=#006600;endSize=3;" edge="1" parent="NsenR0JHLSsDGOoAYdqC-161">
          <mxGeometry width="50" height="50" relative="1" as="geometry">
            <mxPoint x="121" y="78" as="sourcePoint" />
            <mxPoint x="121" y="61" as="targetPoint" />
          </mxGeometry>
        </mxCell>
        <mxCell id="NsenR0JHLSsDGOoAYdqC-173" value="&lt;div style=&quot;line-height: 80%;&quot;&gt;&lt;font face=&quot;Times New Roman&quot; style=&quot;line-height: 80%; font-size: 8px;&quot;&gt;&lt;font style=&quot;color: rgb(0, 0, 0);&quot;&gt;Config.&amp;nbsp;&lt;/font&gt;&lt;br&gt;&lt;/font&gt;&lt;/div&gt;" style="text;html=1;align=center;verticalAlign=middle;whiteSpace=wrap;rounded=0;container=0;" vertex="1" parent="NsenR0JHLSsDGOoAYdqC-161">
          <mxGeometry x="1" y="56.25" width="40" height="20" as="geometry" />
        </mxCell>
        <mxCell id="NsenR0JHLSsDGOoAYdqC-174" value="" style="endArrow=classic;html=1;rounded=0;strokeColor=#000000;endSize=3;" edge="1" parent="NsenR0JHLSsDGOoAYdqC-161">
          <mxGeometry width="50" height="50" relative="1" as="geometry">
            <mxPoint x="34" y="76" as="sourcePoint" />
            <mxPoint x="34" y="59" as="targetPoint" />
          </mxGeometry>
        </mxCell>
        <mxCell id="NsenR0JHLSsDGOoAYdqC-175" value="&lt;div style=&quot;line-height: 80%;&quot;&gt;&lt;font face=&quot;Times New Roman&quot; style=&quot;line-height: 80%; font-size: 11px;&quot;&gt;&lt;i&gt;BLE&lt;/i&gt;&lt;/font&gt;&lt;/div&gt;" style="text;html=1;align=center;verticalAlign=middle;whiteSpace=wrap;rounded=0;container=0;" vertex="1" parent="NsenR0JHLSsDGOoAYdqC-161">
          <mxGeometry x="1" y="2" width="23" height="13" as="geometry" />
        </mxCell>
        <mxCell id="NsenR0JHLSsDGOoAYdqC-176" style="rounded=0;orthogonalLoop=1;jettySize=auto;html=1;entryX=0;entryY=0.5;entryDx=0;entryDy=0;endArrow=none;startFill=0;" edge="1" parent="NsenR0JHLSsDGOoAYdqC-161">
          <mxGeometry relative="1" as="geometry">
            <mxPoint x="10" y="37.5" as="sourcePoint" />
            <mxPoint y="37.5" as="targetPoint" />
          </mxGeometry>
        </mxCell>
        <mxCell id="NsenR0JHLSsDGOoAYdqC-177" value="" style="group" vertex="1" connectable="0" parent="1">
          <mxGeometry x="20" y="530" width="160" height="83" as="geometry" />
        </mxCell>
        <mxCell id="NsenR0JHLSsDGOoAYdqC-178" value="" style="rounded=0;whiteSpace=wrap;html=1;strokeWidth=1;fillColor=#F5F9FC;container=0;" vertex="1" parent="NsenR0JHLSsDGOoAYdqC-177">
          <mxGeometry width="160" height="80" as="geometry" />
        </mxCell>
        <mxCell id="NsenR0JHLSsDGOoAYdqC-179" style="edgeStyle=orthogonalEdgeStyle;rounded=0;orthogonalLoop=1;jettySize=auto;html=1;entryX=0.25;entryY=1;entryDx=0;entryDy=0;endArrow=none;startFill=0;exitX=1;exitY=0.5;exitDx=0;exitDy=0;" edge="1" parent="NsenR0JHLSsDGOoAYdqC-177" source="NsenR0JHLSsDGOoAYdqC-180" target="NsenR0JHLSsDGOoAYdqC-183">
          <mxGeometry relative="1" as="geometry">
            <Array as="points">
              <mxPoint x="60" y="37" />
              <mxPoint x="60" y="10" />
              <mxPoint x="130" y="10" />
              <mxPoint x="130" y="22" />
            </Array>
          </mxGeometry>
        </mxCell>
        <mxCell id="NsenR0JHLSsDGOoAYdqC-180" value="&lt;font face=&quot;Times New Roman&quot;&gt;LUT&lt;/font&gt;" style="rounded=0;whiteSpace=wrap;html=1;fillColor=#D0E2F0;container=0;" vertex="1" parent="NsenR0JHLSsDGOoAYdqC-177">
          <mxGeometry x="10" y="17.75" width="40" height="38.5" as="geometry" />
        </mxCell>
        <mxCell id="NsenR0JHLSsDGOoAYdqC-181" value="&lt;font face=&quot;Times New Roman&quot;&gt;Config.&lt;/font&gt;&lt;div&gt;&lt;font face=&quot;Times New Roman&quot;&gt;Latch&lt;/font&gt;&lt;/div&gt;" style="rounded=0;whiteSpace=wrap;html=1;fillColor=#D6D9EC;container=0;" vertex="1" parent="NsenR0JHLSsDGOoAYdqC-177">
          <mxGeometry x="84" y="14" width="40" height="46" as="geometry" />
        </mxCell>
        <mxCell id="NsenR0JHLSsDGOoAYdqC-182" style="rounded=0;orthogonalLoop=1;jettySize=auto;html=1;entryX=1.001;entryY=0.46;entryDx=0;entryDy=0;endArrow=none;startFill=0;entryPerimeter=0;" edge="1" parent="NsenR0JHLSsDGOoAYdqC-177" source="NsenR0JHLSsDGOoAYdqC-183" target="NsenR0JHLSsDGOoAYdqC-178">
          <mxGeometry relative="1" as="geometry">
            <Array as="points">
              <mxPoint x="160" y="36" />
            </Array>
          </mxGeometry>
        </mxCell>
        <mxCell id="NsenR0JHLSsDGOoAYdqC-183" value="" style="shape=trapezoid;perimeter=trapezoidPerimeter;whiteSpace=wrap;html=1;fixedSize=1;rotation=90;size=15;strokeWidth=1;fillColor=#BDD6F2;strokeColor=#000000;fontFamily=Times New Roman;container=0;" vertex="1" parent="NsenR0JHLSsDGOoAYdqC-177">
          <mxGeometry x="120" y="28.5" width="55" height="15" as="geometry" />
        </mxCell>
        <mxCell id="NsenR0JHLSsDGOoAYdqC-184" style="rounded=0;orthogonalLoop=1;jettySize=auto;html=1;entryX=0.52;entryY=0.965;entryDx=0;entryDy=0;entryPerimeter=0;endArrow=none;startFill=0;" edge="1" parent="NsenR0JHLSsDGOoAYdqC-177" source="NsenR0JHLSsDGOoAYdqC-181" target="NsenR0JHLSsDGOoAYdqC-183">
          <mxGeometry relative="1" as="geometry" />
        </mxCell>
        <mxCell id="NsenR0JHLSsDGOoAYdqC-185" value="" style="triangle;whiteSpace=wrap;html=1;strokeWidth=1;fillColor=light-dark(#f9fafb, #1d293b);strokeColor=#000000;fontFamily=Times New Roman;container=0;" vertex="1" parent="NsenR0JHLSsDGOoAYdqC-177">
          <mxGeometry x="84" y="48" width="10" height="10" as="geometry" />
        </mxCell>
        <mxCell id="NsenR0JHLSsDGOoAYdqC-186" style="rounded=0;orthogonalLoop=1;jettySize=auto;html=1;entryX=0;entryY=0.5;entryDx=0;entryDy=0;endArrow=none;startFill=0;exitX=1;exitY=0.5;exitDx=0;exitDy=0;" edge="1" parent="NsenR0JHLSsDGOoAYdqC-177" source="NsenR0JHLSsDGOoAYdqC-180" target="NsenR0JHLSsDGOoAYdqC-181">
          <mxGeometry relative="1" as="geometry" />
        </mxCell>
        <mxCell id="NsenR0JHLSsDGOoAYdqC-187" value="&lt;div style=&quot;line-height: 80%;&quot;&gt;&lt;font face=&quot;Times New Roman&quot; style=&quot;line-height: 80%; font-size: 8px; color: rgb(0, 102, 0);&quot;&gt;Config. bit:&amp;nbsp;&lt;/font&gt;&lt;div&gt;&lt;span style=&quot;font-family: &amp;quot;Times New Roman&amp;quot;; background-color: transparent; line-height: 80%;&quot;&gt;&lt;font style=&quot;font-size: 8px; color: rgb(0, 102, 0);&quot;&gt;FF/Latch mode&lt;/font&gt;&lt;/span&gt;&lt;/div&gt;&lt;/div&gt;" style="text;html=1;align=center;verticalAlign=middle;whiteSpace=wrap;rounded=0;container=0;" vertex="1" parent="NsenR0JHLSsDGOoAYdqC-177">
          <mxGeometry x="53" y="53" width="80" height="30" as="geometry" />
        </mxCell>
        <mxCell id="NsenR0JHLSsDGOoAYdqC-188" value="" style="endArrow=classic;html=1;rounded=0;strokeColor=#006600;endSize=3;" edge="1" parent="NsenR0JHLSsDGOoAYdqC-177">
          <mxGeometry width="50" height="50" relative="1" as="geometry">
            <mxPoint x="121" y="78" as="sourcePoint" />
            <mxPoint x="121" y="61" as="targetPoint" />
          </mxGeometry>
        </mxCell>
        <mxCell id="NsenR0JHLSsDGOoAYdqC-189" value="&lt;div style=&quot;line-height: 80%;&quot;&gt;&lt;font face=&quot;Times New Roman&quot; style=&quot;line-height: 80%; font-size: 8px;&quot;&gt;&lt;font style=&quot;color: rgb(0, 0, 0);&quot;&gt;Config.&amp;nbsp;&lt;/font&gt;&lt;br&gt;&lt;/font&gt;&lt;/div&gt;" style="text;html=1;align=center;verticalAlign=middle;whiteSpace=wrap;rounded=0;container=0;" vertex="1" parent="NsenR0JHLSsDGOoAYdqC-177">
          <mxGeometry x="1" y="56.25" width="40" height="20" as="geometry" />
        </mxCell>
        <mxCell id="NsenR0JHLSsDGOoAYdqC-190" value="" style="endArrow=classic;html=1;rounded=0;strokeColor=#000000;endSize=3;" edge="1" parent="NsenR0JHLSsDGOoAYdqC-177">
          <mxGeometry width="50" height="50" relative="1" as="geometry">
            <mxPoint x="34" y="76" as="sourcePoint" />
            <mxPoint x="34" y="59" as="targetPoint" />
          </mxGeometry>
        </mxCell>
        <mxCell id="NsenR0JHLSsDGOoAYdqC-191" value="&lt;div style=&quot;line-height: 80%;&quot;&gt;&lt;font face=&quot;Times New Roman&quot; style=&quot;line-height: 80%; font-size: 11px;&quot;&gt;&lt;i&gt;BLE&lt;/i&gt;&lt;/font&gt;&lt;/div&gt;" style="text;html=1;align=center;verticalAlign=middle;whiteSpace=wrap;rounded=0;container=0;" vertex="1" parent="NsenR0JHLSsDGOoAYdqC-177">
          <mxGeometry x="1" y="2" width="23" height="13" as="geometry" />
        </mxCell>
        <mxCell id="NsenR0JHLSsDGOoAYdqC-192" style="rounded=0;orthogonalLoop=1;jettySize=auto;html=1;entryX=0;entryY=0.5;entryDx=0;entryDy=0;endArrow=none;startFill=0;" edge="1" parent="NsenR0JHLSsDGOoAYdqC-177">
          <mxGeometry relative="1" as="geometry">
            <mxPoint x="10" y="37.5" as="sourcePoint" />
            <mxPoint y="37.5" as="targetPoint" />
          </mxGeometry>
        </mxCell>
        <mxCell id="NsenR0JHLSsDGOoAYdqC-193" value="" style="group" vertex="1" connectable="0" parent="1">
          <mxGeometry x="250" y="340" width="180" height="280" as="geometry" />
        </mxCell>
        <mxCell id="NsenR0JHLSsDGOoAYdqC-194" value="" style="rounded=0;whiteSpace=wrap;html=1;" vertex="1" parent="NsenR0JHLSsDGOoAYdqC-193">
          <mxGeometry x="-10" y="-16.5" width="190" height="296.5" as="geometry" />
        </mxCell>
        <mxCell id="NsenR0JHLSsDGOoAYdqC-195" value="" style="rounded=0;whiteSpace=wrap;html=1;strokeWidth=1;fillColor=#F5F9FC;container=0;" vertex="1" parent="NsenR0JHLSsDGOoAYdqC-193">
          <mxGeometry width="160" height="80" as="geometry" />
        </mxCell>
        <mxCell id="NsenR0JHLSsDGOoAYdqC-196" style="edgeStyle=orthogonalEdgeStyle;rounded=0;orthogonalLoop=1;jettySize=auto;html=1;entryX=0.25;entryY=1;entryDx=0;entryDy=0;endArrow=none;startFill=0;exitX=1;exitY=0.5;exitDx=0;exitDy=0;" edge="1" parent="NsenR0JHLSsDGOoAYdqC-193" source="NsenR0JHLSsDGOoAYdqC-197" target="NsenR0JHLSsDGOoAYdqC-200">
          <mxGeometry relative="1" as="geometry">
            <Array as="points">
              <mxPoint x="60" y="37" />
              <mxPoint x="60" y="10" />
              <mxPoint x="130" y="10" />
              <mxPoint x="130" y="22" />
            </Array>
          </mxGeometry>
        </mxCell>
        <mxCell id="NsenR0JHLSsDGOoAYdqC-197" value="&lt;font face=&quot;Times New Roman&quot;&gt;LUT&lt;/font&gt;" style="rounded=0;whiteSpace=wrap;html=1;fillColor=#D0E2F0;container=0;" vertex="1" parent="NsenR0JHLSsDGOoAYdqC-193">
          <mxGeometry x="10" y="17.75" width="40" height="38.5" as="geometry" />
        </mxCell>
        <mxCell id="NsenR0JHLSsDGOoAYdqC-198" value="&lt;font face=&quot;Times New Roman&quot;&gt;Config.&lt;/font&gt;&lt;div&gt;&lt;font face=&quot;Times New Roman&quot;&gt;Latch&lt;/font&gt;&lt;/div&gt;" style="rounded=0;whiteSpace=wrap;html=1;fillColor=#D6D9EC;container=0;" vertex="1" parent="NsenR0JHLSsDGOoAYdqC-193">
          <mxGeometry x="84" y="14" width="40" height="46" as="geometry" />
        </mxCell>
        <mxCell id="NsenR0JHLSsDGOoAYdqC-199" style="rounded=0;orthogonalLoop=1;jettySize=auto;html=1;entryX=1.001;entryY=0.46;entryDx=0;entryDy=0;endArrow=none;startFill=0;entryPerimeter=0;" edge="1" parent="NsenR0JHLSsDGOoAYdqC-193" source="NsenR0JHLSsDGOoAYdqC-200" target="NsenR0JHLSsDGOoAYdqC-195">
          <mxGeometry relative="1" as="geometry">
            <Array as="points">
              <mxPoint x="160" y="36" />
            </Array>
          </mxGeometry>
        </mxCell>
        <mxCell id="NsenR0JHLSsDGOoAYdqC-200" value="" style="shape=trapezoid;perimeter=trapezoidPerimeter;whiteSpace=wrap;html=1;fixedSize=1;rotation=90;size=15;strokeWidth=1;fillColor=#BDD6F2;strokeColor=#000000;fontFamily=Times New Roman;container=0;" vertex="1" parent="NsenR0JHLSsDGOoAYdqC-193">
          <mxGeometry x="120" y="28.5" width="55" height="15" as="geometry" />
        </mxCell>
        <mxCell id="NsenR0JHLSsDGOoAYdqC-201" style="rounded=0;orthogonalLoop=1;jettySize=auto;html=1;entryX=0.52;entryY=0.965;entryDx=0;entryDy=0;entryPerimeter=0;endArrow=none;startFill=0;" edge="1" parent="NsenR0JHLSsDGOoAYdqC-193" source="NsenR0JHLSsDGOoAYdqC-198" target="NsenR0JHLSsDGOoAYdqC-200">
          <mxGeometry relative="1" as="geometry" />
        </mxCell>
        <mxCell id="NsenR0JHLSsDGOoAYdqC-202" value="" style="triangle;whiteSpace=wrap;html=1;strokeWidth=1;fillColor=light-dark(#f9fafb, #1d293b);strokeColor=#000000;fontFamily=Times New Roman;container=0;" vertex="1" parent="NsenR0JHLSsDGOoAYdqC-193">
          <mxGeometry x="84" y="48" width="10" height="10" as="geometry" />
        </mxCell>
        <mxCell id="NsenR0JHLSsDGOoAYdqC-203" style="rounded=0;orthogonalLoop=1;jettySize=auto;html=1;entryX=0;entryY=0.5;entryDx=0;entryDy=0;endArrow=none;startFill=0;exitX=1;exitY=0.5;exitDx=0;exitDy=0;" edge="1" parent="NsenR0JHLSsDGOoAYdqC-193" source="NsenR0JHLSsDGOoAYdqC-197" target="NsenR0JHLSsDGOoAYdqC-198">
          <mxGeometry relative="1" as="geometry" />
        </mxCell>
        <mxCell id="NsenR0JHLSsDGOoAYdqC-204" value="&lt;div style=&quot;line-height: 80%;&quot;&gt;&lt;font face=&quot;Times New Roman&quot; style=&quot;line-height: 80%; font-size: 8px; color: rgb(0, 102, 0);&quot;&gt;Config. bit:&amp;nbsp;&lt;/font&gt;&lt;div&gt;&lt;span style=&quot;font-family: &amp;quot;Times New Roman&amp;quot;; background-color: transparent; line-height: 80%;&quot;&gt;&lt;font style=&quot;font-size: 8px; color: rgb(0, 102, 0);&quot;&gt;FF/Latch mode&lt;/font&gt;&lt;/span&gt;&lt;/div&gt;&lt;/div&gt;" style="text;html=1;align=center;verticalAlign=middle;whiteSpace=wrap;rounded=0;container=0;" vertex="1" parent="NsenR0JHLSsDGOoAYdqC-193">
          <mxGeometry x="53" y="53" width="80" height="30" as="geometry" />
        </mxCell>
        <mxCell id="NsenR0JHLSsDGOoAYdqC-205" value="" style="endArrow=classic;html=1;rounded=0;strokeColor=#006600;endSize=3;" edge="1" parent="NsenR0JHLSsDGOoAYdqC-193">
          <mxGeometry width="50" height="50" relative="1" as="geometry">
            <mxPoint x="121" y="78" as="sourcePoint" />
            <mxPoint x="121" y="61" as="targetPoint" />
          </mxGeometry>
        </mxCell>
        <mxCell id="NsenR0JHLSsDGOoAYdqC-206" value="&lt;div style=&quot;line-height: 80%;&quot;&gt;&lt;font face=&quot;Times New Roman&quot; style=&quot;line-height: 80%; font-size: 8px;&quot;&gt;&lt;font style=&quot;color: rgb(0, 0, 0);&quot;&gt;Config.&amp;nbsp;&lt;/font&gt;&lt;br&gt;&lt;/font&gt;&lt;/div&gt;" style="text;html=1;align=center;verticalAlign=middle;whiteSpace=wrap;rounded=0;container=0;" vertex="1" parent="NsenR0JHLSsDGOoAYdqC-193">
          <mxGeometry x="1" y="56.25" width="40" height="20" as="geometry" />
        </mxCell>
        <mxCell id="NsenR0JHLSsDGOoAYdqC-207" value="" style="endArrow=classic;html=1;rounded=0;strokeColor=#000000;endSize=3;" edge="1" parent="NsenR0JHLSsDGOoAYdqC-193">
          <mxGeometry width="50" height="50" relative="1" as="geometry">
            <mxPoint x="34" y="76" as="sourcePoint" />
            <mxPoint x="34" y="59" as="targetPoint" />
          </mxGeometry>
        </mxCell>
        <mxCell id="NsenR0JHLSsDGOoAYdqC-208" value="&lt;div style=&quot;line-height: 80%;&quot;&gt;&lt;font face=&quot;Times New Roman&quot; style=&quot;line-height: 80%; font-size: 11px;&quot;&gt;&lt;i&gt;BLE&lt;/i&gt;&lt;/font&gt;&lt;/div&gt;" style="text;html=1;align=center;verticalAlign=middle;whiteSpace=wrap;rounded=0;container=0;" vertex="1" parent="NsenR0JHLSsDGOoAYdqC-193">
          <mxGeometry x="1" y="2" width="23" height="13" as="geometry" />
        </mxCell>
        <mxCell id="NsenR0JHLSsDGOoAYdqC-209" style="rounded=0;orthogonalLoop=1;jettySize=auto;html=1;entryX=0;entryY=0.5;entryDx=0;entryDy=0;endArrow=none;startFill=0;" edge="1" parent="NsenR0JHLSsDGOoAYdqC-193">
          <mxGeometry relative="1" as="geometry">
            <mxPoint x="10" y="37.5" as="sourcePoint" />
            <mxPoint y="37.5" as="targetPoint" />
          </mxGeometry>
        </mxCell>
        <mxCell id="NsenR0JHLSsDGOoAYdqC-210" value="&lt;div style=&quot;line-height: 80%;&quot;&gt;&lt;font face=&quot;Times New Roman&quot; style=&quot;line-height: 80%;&quot;&gt;&lt;font style=&quot;color: rgb(0, 0, 0); font-size: 14px;&quot;&gt;&lt;b&gt;......&lt;/b&gt;&lt;/font&gt;&lt;br&gt;&lt;/font&gt;&lt;/div&gt;" style="text;html=1;align=center;verticalAlign=middle;whiteSpace=wrap;rounded=0;container=0;" vertex="1" parent="NsenR0JHLSsDGOoAYdqC-193">
          <mxGeometry x="60" y="170" width="40" height="20" as="geometry" />
        </mxCell>
        <mxCell id="NsenR0JHLSsDGOoAYdqC-211" value="" style="group" vertex="1" connectable="0" parent="1">
          <mxGeometry x="250" y="430" width="160" height="83" as="geometry" />
        </mxCell>
        <mxCell id="NsenR0JHLSsDGOoAYdqC-212" value="" style="rounded=0;whiteSpace=wrap;html=1;strokeWidth=1;fillColor=#F5F9FC;container=0;" vertex="1" parent="NsenR0JHLSsDGOoAYdqC-211">
          <mxGeometry width="160" height="80" as="geometry" />
        </mxCell>
        <mxCell id="NsenR0JHLSsDGOoAYdqC-213" style="edgeStyle=orthogonalEdgeStyle;rounded=0;orthogonalLoop=1;jettySize=auto;html=1;entryX=0.25;entryY=1;entryDx=0;entryDy=0;endArrow=none;startFill=0;exitX=1;exitY=0.5;exitDx=0;exitDy=0;" edge="1" parent="NsenR0JHLSsDGOoAYdqC-211" source="NsenR0JHLSsDGOoAYdqC-214" target="NsenR0JHLSsDGOoAYdqC-217">
          <mxGeometry relative="1" as="geometry">
            <Array as="points">
              <mxPoint x="60" y="37" />
              <mxPoint x="60" y="10" />
              <mxPoint x="130" y="10" />
              <mxPoint x="130" y="22" />
            </Array>
          </mxGeometry>
        </mxCell>
        <mxCell id="NsenR0JHLSsDGOoAYdqC-214" value="&lt;font face=&quot;Times New Roman&quot;&gt;LUT&lt;/font&gt;" style="rounded=0;whiteSpace=wrap;html=1;fillColor=#D0E2F0;container=0;" vertex="1" parent="NsenR0JHLSsDGOoAYdqC-211">
          <mxGeometry x="10" y="17.75" width="40" height="38.5" as="geometry" />
        </mxCell>
        <mxCell id="NsenR0JHLSsDGOoAYdqC-215" value="&lt;font face=&quot;Times New Roman&quot;&gt;Config.&lt;/font&gt;&lt;div&gt;&lt;font face=&quot;Times New Roman&quot;&gt;Latch&lt;/font&gt;&lt;/div&gt;" style="rounded=0;whiteSpace=wrap;html=1;fillColor=#D6D9EC;container=0;" vertex="1" parent="NsenR0JHLSsDGOoAYdqC-211">
          <mxGeometry x="84" y="14" width="40" height="46" as="geometry" />
        </mxCell>
        <mxCell id="NsenR0JHLSsDGOoAYdqC-216" style="rounded=0;orthogonalLoop=1;jettySize=auto;html=1;entryX=1.001;entryY=0.46;entryDx=0;entryDy=0;endArrow=none;startFill=0;entryPerimeter=0;" edge="1" parent="NsenR0JHLSsDGOoAYdqC-211" source="NsenR0JHLSsDGOoAYdqC-217" target="NsenR0JHLSsDGOoAYdqC-212">
          <mxGeometry relative="1" as="geometry">
            <Array as="points">
              <mxPoint x="160" y="36" />
            </Array>
          </mxGeometry>
        </mxCell>
        <mxCell id="NsenR0JHLSsDGOoAYdqC-217" value="" style="shape=trapezoid;perimeter=trapezoidPerimeter;whiteSpace=wrap;html=1;fixedSize=1;rotation=90;size=15;strokeWidth=1;fillColor=#BDD6F2;strokeColor=#000000;fontFamily=Times New Roman;container=0;" vertex="1" parent="NsenR0JHLSsDGOoAYdqC-211">
          <mxGeometry x="120" y="28.5" width="55" height="15" as="geometry" />
        </mxCell>
        <mxCell id="NsenR0JHLSsDGOoAYdqC-218" style="rounded=0;orthogonalLoop=1;jettySize=auto;html=1;entryX=0.52;entryY=0.965;entryDx=0;entryDy=0;entryPerimeter=0;endArrow=none;startFill=0;" edge="1" parent="NsenR0JHLSsDGOoAYdqC-211" source="NsenR0JHLSsDGOoAYdqC-215" target="NsenR0JHLSsDGOoAYdqC-217">
          <mxGeometry relative="1" as="geometry" />
        </mxCell>
        <mxCell id="NsenR0JHLSsDGOoAYdqC-219" value="" style="triangle;whiteSpace=wrap;html=1;strokeWidth=1;fillColor=light-dark(#f9fafb, #1d293b);strokeColor=#000000;fontFamily=Times New Roman;container=0;" vertex="1" parent="NsenR0JHLSsDGOoAYdqC-211">
          <mxGeometry x="84" y="48" width="10" height="10" as="geometry" />
        </mxCell>
        <mxCell id="NsenR0JHLSsDGOoAYdqC-220" style="rounded=0;orthogonalLoop=1;jettySize=auto;html=1;entryX=0;entryY=0.5;entryDx=0;entryDy=0;endArrow=none;startFill=0;exitX=1;exitY=0.5;exitDx=0;exitDy=0;" edge="1" parent="NsenR0JHLSsDGOoAYdqC-211" source="NsenR0JHLSsDGOoAYdqC-214" target="NsenR0JHLSsDGOoAYdqC-215">
          <mxGeometry relative="1" as="geometry" />
        </mxCell>
        <mxCell id="NsenR0JHLSsDGOoAYdqC-221" value="&lt;div style=&quot;line-height: 80%;&quot;&gt;&lt;font face=&quot;Times New Roman&quot; style=&quot;line-height: 80%; font-size: 8px; color: rgb(0, 102, 0);&quot;&gt;Config. bit:&amp;nbsp;&lt;/font&gt;&lt;div&gt;&lt;span style=&quot;font-family: &amp;quot;Times New Roman&amp;quot;; background-color: transparent; line-height: 80%;&quot;&gt;&lt;font style=&quot;font-size: 8px; color: rgb(0, 102, 0);&quot;&gt;FF/Latch mode&lt;/font&gt;&lt;/span&gt;&lt;/div&gt;&lt;/div&gt;" style="text;html=1;align=center;verticalAlign=middle;whiteSpace=wrap;rounded=0;container=0;" vertex="1" parent="NsenR0JHLSsDGOoAYdqC-211">
          <mxGeometry x="53" y="53" width="80" height="30" as="geometry" />
        </mxCell>
        <mxCell id="NsenR0JHLSsDGOoAYdqC-222" value="" style="endArrow=classic;html=1;rounded=0;strokeColor=#006600;endSize=3;" edge="1" parent="NsenR0JHLSsDGOoAYdqC-211">
          <mxGeometry width="50" height="50" relative="1" as="geometry">
            <mxPoint x="121" y="78" as="sourcePoint" />
            <mxPoint x="121" y="61" as="targetPoint" />
          </mxGeometry>
        </mxCell>
        <mxCell id="NsenR0JHLSsDGOoAYdqC-223" value="&lt;div style=&quot;line-height: 80%;&quot;&gt;&lt;font face=&quot;Times New Roman&quot; style=&quot;line-height: 80%; font-size: 8px;&quot;&gt;&lt;font style=&quot;color: rgb(0, 0, 0);&quot;&gt;Config.&amp;nbsp;&lt;/font&gt;&lt;br&gt;&lt;/font&gt;&lt;/div&gt;" style="text;html=1;align=center;verticalAlign=middle;whiteSpace=wrap;rounded=0;container=0;" vertex="1" parent="NsenR0JHLSsDGOoAYdqC-211">
          <mxGeometry x="1" y="56.25" width="40" height="20" as="geometry" />
        </mxCell>
        <mxCell id="NsenR0JHLSsDGOoAYdqC-224" value="" style="endArrow=classic;html=1;rounded=0;strokeColor=#000000;endSize=3;" edge="1" parent="NsenR0JHLSsDGOoAYdqC-211">
          <mxGeometry width="50" height="50" relative="1" as="geometry">
            <mxPoint x="34" y="76" as="sourcePoint" />
            <mxPoint x="34" y="59" as="targetPoint" />
          </mxGeometry>
        </mxCell>
        <mxCell id="NsenR0JHLSsDGOoAYdqC-225" value="&lt;div style=&quot;line-height: 80%;&quot;&gt;&lt;font face=&quot;Times New Roman&quot; style=&quot;line-height: 80%; font-size: 11px;&quot;&gt;&lt;i&gt;BLE&lt;/i&gt;&lt;/font&gt;&lt;/div&gt;" style="text;html=1;align=center;verticalAlign=middle;whiteSpace=wrap;rounded=0;container=0;" vertex="1" parent="NsenR0JHLSsDGOoAYdqC-211">
          <mxGeometry x="1" y="2" width="23" height="13" as="geometry" />
        </mxCell>
        <mxCell id="NsenR0JHLSsDGOoAYdqC-226" style="rounded=0;orthogonalLoop=1;jettySize=auto;html=1;entryX=0;entryY=0.5;entryDx=0;entryDy=0;endArrow=none;startFill=0;" edge="1" parent="NsenR0JHLSsDGOoAYdqC-211">
          <mxGeometry relative="1" as="geometry">
            <mxPoint x="10" y="37.5" as="sourcePoint" />
            <mxPoint y="37.5" as="targetPoint" />
          </mxGeometry>
        </mxCell>
        <mxCell id="NsenR0JHLSsDGOoAYdqC-227" value="" style="group" vertex="1" connectable="0" parent="1">
          <mxGeometry x="250" y="530" width="160" height="83" as="geometry" />
        </mxCell>
        <mxCell id="NsenR0JHLSsDGOoAYdqC-228" value="" style="rounded=0;whiteSpace=wrap;html=1;strokeWidth=1;fillColor=#F5F9FC;container=0;" vertex="1" parent="NsenR0JHLSsDGOoAYdqC-227">
          <mxGeometry width="160" height="80" as="geometry" />
        </mxCell>
        <mxCell id="NsenR0JHLSsDGOoAYdqC-229" style="edgeStyle=orthogonalEdgeStyle;rounded=0;orthogonalLoop=1;jettySize=auto;html=1;entryX=0.25;entryY=1;entryDx=0;entryDy=0;endArrow=none;startFill=0;exitX=1;exitY=0.5;exitDx=0;exitDy=0;" edge="1" parent="NsenR0JHLSsDGOoAYdqC-227" source="NsenR0JHLSsDGOoAYdqC-230" target="NsenR0JHLSsDGOoAYdqC-233">
          <mxGeometry relative="1" as="geometry">
            <Array as="points">
              <mxPoint x="60" y="37" />
              <mxPoint x="60" y="10" />
              <mxPoint x="130" y="10" />
              <mxPoint x="130" y="22" />
            </Array>
          </mxGeometry>
        </mxCell>
        <mxCell id="NsenR0JHLSsDGOoAYdqC-230" value="&lt;font face=&quot;Times New Roman&quot;&gt;LUT&lt;/font&gt;" style="rounded=0;whiteSpace=wrap;html=1;fillColor=#D0E2F0;container=0;" vertex="1" parent="NsenR0JHLSsDGOoAYdqC-227">
          <mxGeometry x="10" y="17.75" width="40" height="38.5" as="geometry" />
        </mxCell>
        <mxCell id="NsenR0JHLSsDGOoAYdqC-231" value="&lt;font face=&quot;Times New Roman&quot;&gt;Config.&lt;/font&gt;&lt;div&gt;&lt;font face=&quot;Times New Roman&quot;&gt;Latch&lt;/font&gt;&lt;/div&gt;" style="rounded=0;whiteSpace=wrap;html=1;fillColor=#D6D9EC;container=0;" vertex="1" parent="NsenR0JHLSsDGOoAYdqC-227">
          <mxGeometry x="84" y="14" width="40" height="46" as="geometry" />
        </mxCell>
        <mxCell id="NsenR0JHLSsDGOoAYdqC-232" style="rounded=0;orthogonalLoop=1;jettySize=auto;html=1;entryX=1.001;entryY=0.46;entryDx=0;entryDy=0;endArrow=none;startFill=0;entryPerimeter=0;" edge="1" parent="NsenR0JHLSsDGOoAYdqC-227" source="NsenR0JHLSsDGOoAYdqC-233" target="NsenR0JHLSsDGOoAYdqC-228">
          <mxGeometry relative="1" as="geometry">
            <Array as="points">
              <mxPoint x="160" y="36" />
            </Array>
          </mxGeometry>
        </mxCell>
        <mxCell id="NsenR0JHLSsDGOoAYdqC-233" value="" style="shape=trapezoid;perimeter=trapezoidPerimeter;whiteSpace=wrap;html=1;fixedSize=1;rotation=90;size=15;strokeWidth=1;fillColor=#BDD6F2;strokeColor=#000000;fontFamily=Times New Roman;container=0;" vertex="1" parent="NsenR0JHLSsDGOoAYdqC-227">
          <mxGeometry x="120" y="28.5" width="55" height="15" as="geometry" />
        </mxCell>
        <mxCell id="NsenR0JHLSsDGOoAYdqC-234" style="rounded=0;orthogonalLoop=1;jettySize=auto;html=1;entryX=0.52;entryY=0.965;entryDx=0;entryDy=0;entryPerimeter=0;endArrow=none;startFill=0;" edge="1" parent="NsenR0JHLSsDGOoAYdqC-227" source="NsenR0JHLSsDGOoAYdqC-231" target="NsenR0JHLSsDGOoAYdqC-233">
          <mxGeometry relative="1" as="geometry" />
        </mxCell>
        <mxCell id="NsenR0JHLSsDGOoAYdqC-235" value="" style="triangle;whiteSpace=wrap;html=1;strokeWidth=1;fillColor=light-dark(#f9fafb, #1d293b);strokeColor=#000000;fontFamily=Times New Roman;container=0;" vertex="1" parent="NsenR0JHLSsDGOoAYdqC-227">
          <mxGeometry x="84" y="48" width="10" height="10" as="geometry" />
        </mxCell>
        <mxCell id="NsenR0JHLSsDGOoAYdqC-236" style="rounded=0;orthogonalLoop=1;jettySize=auto;html=1;entryX=0;entryY=0.5;entryDx=0;entryDy=0;endArrow=none;startFill=0;exitX=1;exitY=0.5;exitDx=0;exitDy=0;" edge="1" parent="NsenR0JHLSsDGOoAYdqC-227" source="NsenR0JHLSsDGOoAYdqC-230" target="NsenR0JHLSsDGOoAYdqC-231">
          <mxGeometry relative="1" as="geometry" />
        </mxCell>
        <mxCell id="NsenR0JHLSsDGOoAYdqC-237" value="&lt;div style=&quot;line-height: 80%;&quot;&gt;&lt;font face=&quot;Times New Roman&quot; style=&quot;line-height: 80%; font-size: 8px; color: rgb(0, 102, 0);&quot;&gt;Config. bit:&amp;nbsp;&lt;/font&gt;&lt;div&gt;&lt;span style=&quot;font-family: &amp;quot;Times New Roman&amp;quot;; background-color: transparent; line-height: 80%;&quot;&gt;&lt;font style=&quot;font-size: 8px; color: rgb(0, 102, 0);&quot;&gt;FF/Latch mode&lt;/font&gt;&lt;/span&gt;&lt;/div&gt;&lt;/div&gt;" style="text;html=1;align=center;verticalAlign=middle;whiteSpace=wrap;rounded=0;container=0;" vertex="1" parent="NsenR0JHLSsDGOoAYdqC-227">
          <mxGeometry x="53" y="53" width="80" height="30" as="geometry" />
        </mxCell>
        <mxCell id="NsenR0JHLSsDGOoAYdqC-238" value="" style="endArrow=classic;html=1;rounded=0;strokeColor=#006600;endSize=3;" edge="1" parent="NsenR0JHLSsDGOoAYdqC-227">
          <mxGeometry width="50" height="50" relative="1" as="geometry">
            <mxPoint x="121" y="78" as="sourcePoint" />
            <mxPoint x="121" y="61" as="targetPoint" />
          </mxGeometry>
        </mxCell>
        <mxCell id="NsenR0JHLSsDGOoAYdqC-239" value="&lt;div style=&quot;line-height: 80%;&quot;&gt;&lt;font face=&quot;Times New Roman&quot; style=&quot;line-height: 80%; font-size: 8px;&quot;&gt;&lt;font style=&quot;color: rgb(0, 0, 0);&quot;&gt;Config.&amp;nbsp;&lt;/font&gt;&lt;br&gt;&lt;/font&gt;&lt;/div&gt;" style="text;html=1;align=center;verticalAlign=middle;whiteSpace=wrap;rounded=0;container=0;" vertex="1" parent="NsenR0JHLSsDGOoAYdqC-227">
          <mxGeometry x="1" y="56.25" width="40" height="20" as="geometry" />
        </mxCell>
        <mxCell id="NsenR0JHLSsDGOoAYdqC-240" value="" style="endArrow=classic;html=1;rounded=0;strokeColor=#000000;endSize=3;" edge="1" parent="NsenR0JHLSsDGOoAYdqC-227">
          <mxGeometry width="50" height="50" relative="1" as="geometry">
            <mxPoint x="34" y="76" as="sourcePoint" />
            <mxPoint x="34" y="59" as="targetPoint" />
          </mxGeometry>
        </mxCell>
        <mxCell id="NsenR0JHLSsDGOoAYdqC-241" value="&lt;div style=&quot;line-height: 80%;&quot;&gt;&lt;font face=&quot;Times New Roman&quot; style=&quot;line-height: 80%; font-size: 11px;&quot;&gt;&lt;i&gt;BLE&lt;/i&gt;&lt;/font&gt;&lt;/div&gt;" style="text;html=1;align=center;verticalAlign=middle;whiteSpace=wrap;rounded=0;container=0;" vertex="1" parent="NsenR0JHLSsDGOoAYdqC-227">
          <mxGeometry x="1" y="2" width="23" height="13" as="geometry" />
        </mxCell>
        <mxCell id="NsenR0JHLSsDGOoAYdqC-242" style="rounded=0;orthogonalLoop=1;jettySize=auto;html=1;entryX=0;entryY=0.5;entryDx=0;entryDy=0;endArrow=none;startFill=0;" edge="1" parent="NsenR0JHLSsDGOoAYdqC-227">
          <mxGeometry relative="1" as="geometry">
            <mxPoint x="10" y="37.5" as="sourcePoint" />
            <mxPoint y="37.5" as="targetPoint" />
          </mxGeometry>
        </mxCell>
        <mxCell id="NsenR0JHLSsDGOoAYdqC-243" value="" style="group" vertex="1" connectable="0" parent="1">
          <mxGeometry x="480" y="30" width="180" height="280" as="geometry" />
        </mxCell>
        <mxCell id="NsenR0JHLSsDGOoAYdqC-244" value="" style="rounded=0;whiteSpace=wrap;html=1;" vertex="1" parent="NsenR0JHLSsDGOoAYdqC-243">
          <mxGeometry x="-10" y="-16.5" width="190" height="296.5" as="geometry" />
        </mxCell>
        <mxCell id="NsenR0JHLSsDGOoAYdqC-245" value="" style="rounded=0;whiteSpace=wrap;html=1;strokeWidth=1;fillColor=#F5F9FC;container=0;" vertex="1" parent="NsenR0JHLSsDGOoAYdqC-243">
          <mxGeometry width="160" height="80" as="geometry" />
        </mxCell>
        <mxCell id="NsenR0JHLSsDGOoAYdqC-246" style="edgeStyle=orthogonalEdgeStyle;rounded=0;orthogonalLoop=1;jettySize=auto;html=1;entryX=0.25;entryY=1;entryDx=0;entryDy=0;endArrow=none;startFill=0;exitX=1;exitY=0.5;exitDx=0;exitDy=0;" edge="1" parent="NsenR0JHLSsDGOoAYdqC-243" source="NsenR0JHLSsDGOoAYdqC-247" target="NsenR0JHLSsDGOoAYdqC-250">
          <mxGeometry relative="1" as="geometry">
            <Array as="points">
              <mxPoint x="60" y="37" />
              <mxPoint x="60" y="10" />
              <mxPoint x="130" y="10" />
              <mxPoint x="130" y="22" />
            </Array>
          </mxGeometry>
        </mxCell>
        <mxCell id="NsenR0JHLSsDGOoAYdqC-247" value="&lt;font face=&quot;Times New Roman&quot;&gt;LUT&lt;/font&gt;" style="rounded=0;whiteSpace=wrap;html=1;fillColor=#D0E2F0;container=0;" vertex="1" parent="NsenR0JHLSsDGOoAYdqC-243">
          <mxGeometry x="10" y="17.75" width="40" height="38.5" as="geometry" />
        </mxCell>
        <mxCell id="NsenR0JHLSsDGOoAYdqC-248" value="&lt;font face=&quot;Times New Roman&quot;&gt;Config.&lt;/font&gt;&lt;div&gt;&lt;font face=&quot;Times New Roman&quot;&gt;Latch&lt;/font&gt;&lt;/div&gt;" style="rounded=0;whiteSpace=wrap;html=1;fillColor=#D6D9EC;container=0;" vertex="1" parent="NsenR0JHLSsDGOoAYdqC-243">
          <mxGeometry x="84" y="14" width="40" height="46" as="geometry" />
        </mxCell>
        <mxCell id="NsenR0JHLSsDGOoAYdqC-249" style="rounded=0;orthogonalLoop=1;jettySize=auto;html=1;entryX=1.001;entryY=0.46;entryDx=0;entryDy=0;endArrow=none;startFill=0;entryPerimeter=0;" edge="1" parent="NsenR0JHLSsDGOoAYdqC-243" source="NsenR0JHLSsDGOoAYdqC-250" target="NsenR0JHLSsDGOoAYdqC-245">
          <mxGeometry relative="1" as="geometry">
            <Array as="points">
              <mxPoint x="160" y="36" />
            </Array>
          </mxGeometry>
        </mxCell>
        <mxCell id="NsenR0JHLSsDGOoAYdqC-250" value="" style="shape=trapezoid;perimeter=trapezoidPerimeter;whiteSpace=wrap;html=1;fixedSize=1;rotation=90;size=15;strokeWidth=1;fillColor=#BDD6F2;strokeColor=#000000;fontFamily=Times New Roman;container=0;" vertex="1" parent="NsenR0JHLSsDGOoAYdqC-243">
          <mxGeometry x="120" y="28.5" width="55" height="15" as="geometry" />
        </mxCell>
        <mxCell id="NsenR0JHLSsDGOoAYdqC-251" style="rounded=0;orthogonalLoop=1;jettySize=auto;html=1;entryX=0.52;entryY=0.965;entryDx=0;entryDy=0;entryPerimeter=0;endArrow=none;startFill=0;" edge="1" parent="NsenR0JHLSsDGOoAYdqC-243" source="NsenR0JHLSsDGOoAYdqC-248" target="NsenR0JHLSsDGOoAYdqC-250">
          <mxGeometry relative="1" as="geometry" />
        </mxCell>
        <mxCell id="NsenR0JHLSsDGOoAYdqC-252" value="" style="triangle;whiteSpace=wrap;html=1;strokeWidth=1;fillColor=light-dark(#f9fafb, #1d293b);strokeColor=#000000;fontFamily=Times New Roman;container=0;" vertex="1" parent="NsenR0JHLSsDGOoAYdqC-243">
          <mxGeometry x="84" y="48" width="10" height="10" as="geometry" />
        </mxCell>
        <mxCell id="NsenR0JHLSsDGOoAYdqC-253" style="rounded=0;orthogonalLoop=1;jettySize=auto;html=1;entryX=0;entryY=0.5;entryDx=0;entryDy=0;endArrow=none;startFill=0;exitX=1;exitY=0.5;exitDx=0;exitDy=0;" edge="1" parent="NsenR0JHLSsDGOoAYdqC-243" source="NsenR0JHLSsDGOoAYdqC-247" target="NsenR0JHLSsDGOoAYdqC-248">
          <mxGeometry relative="1" as="geometry" />
        </mxCell>
        <mxCell id="NsenR0JHLSsDGOoAYdqC-254" value="&lt;div style=&quot;line-height: 80%;&quot;&gt;&lt;font face=&quot;Times New Roman&quot; style=&quot;line-height: 80%; font-size: 8px; color: rgb(0, 102, 0);&quot;&gt;Config. bit:&amp;nbsp;&lt;/font&gt;&lt;div&gt;&lt;span style=&quot;font-family: &amp;quot;Times New Roman&amp;quot;; background-color: transparent; line-height: 80%;&quot;&gt;&lt;font style=&quot;font-size: 8px; color: rgb(0, 102, 0);&quot;&gt;FF/Latch mode&lt;/font&gt;&lt;/span&gt;&lt;/div&gt;&lt;/div&gt;" style="text;html=1;align=center;verticalAlign=middle;whiteSpace=wrap;rounded=0;container=0;" vertex="1" parent="NsenR0JHLSsDGOoAYdqC-243">
          <mxGeometry x="53" y="53" width="80" height="30" as="geometry" />
        </mxCell>
        <mxCell id="NsenR0JHLSsDGOoAYdqC-255" value="" style="endArrow=classic;html=1;rounded=0;strokeColor=#006600;endSize=3;" edge="1" parent="NsenR0JHLSsDGOoAYdqC-243">
          <mxGeometry width="50" height="50" relative="1" as="geometry">
            <mxPoint x="121" y="78" as="sourcePoint" />
            <mxPoint x="121" y="61" as="targetPoint" />
          </mxGeometry>
        </mxCell>
        <mxCell id="NsenR0JHLSsDGOoAYdqC-256" value="&lt;div style=&quot;line-height: 80%;&quot;&gt;&lt;font face=&quot;Times New Roman&quot; style=&quot;line-height: 80%; font-size: 8px;&quot;&gt;&lt;font style=&quot;color: rgb(0, 0, 0);&quot;&gt;Config.&amp;nbsp;&lt;/font&gt;&lt;br&gt;&lt;/font&gt;&lt;/div&gt;" style="text;html=1;align=center;verticalAlign=middle;whiteSpace=wrap;rounded=0;container=0;" vertex="1" parent="NsenR0JHLSsDGOoAYdqC-243">
          <mxGeometry x="1" y="56.25" width="40" height="20" as="geometry" />
        </mxCell>
        <mxCell id="NsenR0JHLSsDGOoAYdqC-257" value="" style="endArrow=classic;html=1;rounded=0;strokeColor=#000000;endSize=3;" edge="1" parent="NsenR0JHLSsDGOoAYdqC-243">
          <mxGeometry width="50" height="50" relative="1" as="geometry">
            <mxPoint x="34" y="76" as="sourcePoint" />
            <mxPoint x="34" y="59" as="targetPoint" />
          </mxGeometry>
        </mxCell>
        <mxCell id="NsenR0JHLSsDGOoAYdqC-258" value="&lt;div style=&quot;line-height: 80%;&quot;&gt;&lt;font face=&quot;Times New Roman&quot; style=&quot;line-height: 80%; font-size: 11px;&quot;&gt;&lt;i&gt;BLE&lt;/i&gt;&lt;/font&gt;&lt;/div&gt;" style="text;html=1;align=center;verticalAlign=middle;whiteSpace=wrap;rounded=0;container=0;" vertex="1" parent="NsenR0JHLSsDGOoAYdqC-243">
          <mxGeometry x="1" y="2" width="23" height="13" as="geometry" />
        </mxCell>
        <mxCell id="NsenR0JHLSsDGOoAYdqC-259" style="rounded=0;orthogonalLoop=1;jettySize=auto;html=1;entryX=0;entryY=0.5;entryDx=0;entryDy=0;endArrow=none;startFill=0;" edge="1" parent="NsenR0JHLSsDGOoAYdqC-243">
          <mxGeometry relative="1" as="geometry">
            <mxPoint x="10" y="37.5" as="sourcePoint" />
            <mxPoint y="37.5" as="targetPoint" />
          </mxGeometry>
        </mxCell>
        <mxCell id="NsenR0JHLSsDGOoAYdqC-260" value="&lt;div style=&quot;line-height: 80%;&quot;&gt;&lt;font face=&quot;Times New Roman&quot; style=&quot;line-height: 80%;&quot;&gt;&lt;font style=&quot;color: rgb(0, 0, 0); font-size: 14px;&quot;&gt;&lt;b&gt;......&lt;/b&gt;&lt;/font&gt;&lt;br&gt;&lt;/font&gt;&lt;/div&gt;" style="text;html=1;align=center;verticalAlign=middle;whiteSpace=wrap;rounded=0;container=0;" vertex="1" parent="NsenR0JHLSsDGOoAYdqC-243">
          <mxGeometry x="60" y="170" width="40" height="20" as="geometry" />
        </mxCell>
        <mxCell id="NsenR0JHLSsDGOoAYdqC-261" value="" style="group" vertex="1" connectable="0" parent="1">
          <mxGeometry x="480" y="120" width="160" height="83" as="geometry" />
        </mxCell>
        <mxCell id="NsenR0JHLSsDGOoAYdqC-262" value="" style="rounded=0;whiteSpace=wrap;html=1;strokeWidth=1;fillColor=#F5F9FC;container=0;" vertex="1" parent="NsenR0JHLSsDGOoAYdqC-261">
          <mxGeometry width="160" height="80" as="geometry" />
        </mxCell>
        <mxCell id="NsenR0JHLSsDGOoAYdqC-263" style="edgeStyle=orthogonalEdgeStyle;rounded=0;orthogonalLoop=1;jettySize=auto;html=1;entryX=0.25;entryY=1;entryDx=0;entryDy=0;endArrow=none;startFill=0;exitX=1;exitY=0.5;exitDx=0;exitDy=0;" edge="1" parent="NsenR0JHLSsDGOoAYdqC-261" source="NsenR0JHLSsDGOoAYdqC-264" target="NsenR0JHLSsDGOoAYdqC-267">
          <mxGeometry relative="1" as="geometry">
            <Array as="points">
              <mxPoint x="60" y="37" />
              <mxPoint x="60" y="10" />
              <mxPoint x="130" y="10" />
              <mxPoint x="130" y="22" />
            </Array>
          </mxGeometry>
        </mxCell>
        <mxCell id="NsenR0JHLSsDGOoAYdqC-264" value="&lt;font face=&quot;Times New Roman&quot;&gt;LUT&lt;/font&gt;" style="rounded=0;whiteSpace=wrap;html=1;fillColor=#D0E2F0;container=0;" vertex="1" parent="NsenR0JHLSsDGOoAYdqC-261">
          <mxGeometry x="10" y="17.75" width="40" height="38.5" as="geometry" />
        </mxCell>
        <mxCell id="NsenR0JHLSsDGOoAYdqC-265" value="&lt;font face=&quot;Times New Roman&quot;&gt;Config.&lt;/font&gt;&lt;div&gt;&lt;font face=&quot;Times New Roman&quot;&gt;Latch&lt;/font&gt;&lt;/div&gt;" style="rounded=0;whiteSpace=wrap;html=1;fillColor=#D6D9EC;container=0;" vertex="1" parent="NsenR0JHLSsDGOoAYdqC-261">
          <mxGeometry x="84" y="14" width="40" height="46" as="geometry" />
        </mxCell>
        <mxCell id="NsenR0JHLSsDGOoAYdqC-266" style="rounded=0;orthogonalLoop=1;jettySize=auto;html=1;entryX=1.001;entryY=0.46;entryDx=0;entryDy=0;endArrow=none;startFill=0;entryPerimeter=0;" edge="1" parent="NsenR0JHLSsDGOoAYdqC-261" source="NsenR0JHLSsDGOoAYdqC-267" target="NsenR0JHLSsDGOoAYdqC-262">
          <mxGeometry relative="1" as="geometry">
            <Array as="points">
              <mxPoint x="160" y="36" />
            </Array>
          </mxGeometry>
        </mxCell>
        <mxCell id="NsenR0JHLSsDGOoAYdqC-267" value="" style="shape=trapezoid;perimeter=trapezoidPerimeter;whiteSpace=wrap;html=1;fixedSize=1;rotation=90;size=15;strokeWidth=1;fillColor=#BDD6F2;strokeColor=#000000;fontFamily=Times New Roman;container=0;" vertex="1" parent="NsenR0JHLSsDGOoAYdqC-261">
          <mxGeometry x="120" y="28.5" width="55" height="15" as="geometry" />
        </mxCell>
        <mxCell id="NsenR0JHLSsDGOoAYdqC-268" style="rounded=0;orthogonalLoop=1;jettySize=auto;html=1;entryX=0.52;entryY=0.965;entryDx=0;entryDy=0;entryPerimeter=0;endArrow=none;startFill=0;" edge="1" parent="NsenR0JHLSsDGOoAYdqC-261" source="NsenR0JHLSsDGOoAYdqC-265" target="NsenR0JHLSsDGOoAYdqC-267">
          <mxGeometry relative="1" as="geometry" />
        </mxCell>
        <mxCell id="NsenR0JHLSsDGOoAYdqC-269" value="" style="triangle;whiteSpace=wrap;html=1;strokeWidth=1;fillColor=light-dark(#f9fafb, #1d293b);strokeColor=#000000;fontFamily=Times New Roman;container=0;" vertex="1" parent="NsenR0JHLSsDGOoAYdqC-261">
          <mxGeometry x="84" y="48" width="10" height="10" as="geometry" />
        </mxCell>
        <mxCell id="NsenR0JHLSsDGOoAYdqC-270" style="rounded=0;orthogonalLoop=1;jettySize=auto;html=1;entryX=0;entryY=0.5;entryDx=0;entryDy=0;endArrow=none;startFill=0;exitX=1;exitY=0.5;exitDx=0;exitDy=0;" edge="1" parent="NsenR0JHLSsDGOoAYdqC-261" source="NsenR0JHLSsDGOoAYdqC-264" target="NsenR0JHLSsDGOoAYdqC-265">
          <mxGeometry relative="1" as="geometry" />
        </mxCell>
        <mxCell id="NsenR0JHLSsDGOoAYdqC-271" value="&lt;div style=&quot;line-height: 80%;&quot;&gt;&lt;font face=&quot;Times New Roman&quot; style=&quot;line-height: 80%; font-size: 8px; color: rgb(0, 102, 0);&quot;&gt;Config. bit:&amp;nbsp;&lt;/font&gt;&lt;div&gt;&lt;span style=&quot;font-family: &amp;quot;Times New Roman&amp;quot;; background-color: transparent; line-height: 80%;&quot;&gt;&lt;font style=&quot;font-size: 8px; color: rgb(0, 102, 0);&quot;&gt;FF/Latch mode&lt;/font&gt;&lt;/span&gt;&lt;/div&gt;&lt;/div&gt;" style="text;html=1;align=center;verticalAlign=middle;whiteSpace=wrap;rounded=0;container=0;" vertex="1" parent="NsenR0JHLSsDGOoAYdqC-261">
          <mxGeometry x="53" y="53" width="80" height="30" as="geometry" />
        </mxCell>
        <mxCell id="NsenR0JHLSsDGOoAYdqC-272" value="" style="endArrow=classic;html=1;rounded=0;strokeColor=#006600;endSize=3;" edge="1" parent="NsenR0JHLSsDGOoAYdqC-261">
          <mxGeometry width="50" height="50" relative="1" as="geometry">
            <mxPoint x="121" y="78" as="sourcePoint" />
            <mxPoint x="121" y="61" as="targetPoint" />
          </mxGeometry>
        </mxCell>
        <mxCell id="NsenR0JHLSsDGOoAYdqC-273" value="&lt;div style=&quot;line-height: 80%;&quot;&gt;&lt;font face=&quot;Times New Roman&quot; style=&quot;line-height: 80%; font-size: 8px;&quot;&gt;&lt;font style=&quot;color: rgb(0, 0, 0);&quot;&gt;Config.&amp;nbsp;&lt;/font&gt;&lt;br&gt;&lt;/font&gt;&lt;/div&gt;" style="text;html=1;align=center;verticalAlign=middle;whiteSpace=wrap;rounded=0;container=0;" vertex="1" parent="NsenR0JHLSsDGOoAYdqC-261">
          <mxGeometry x="1" y="56.25" width="40" height="20" as="geometry" />
        </mxCell>
        <mxCell id="NsenR0JHLSsDGOoAYdqC-274" value="" style="endArrow=classic;html=1;rounded=0;strokeColor=#000000;endSize=3;" edge="1" parent="NsenR0JHLSsDGOoAYdqC-261">
          <mxGeometry width="50" height="50" relative="1" as="geometry">
            <mxPoint x="34" y="76" as="sourcePoint" />
            <mxPoint x="34" y="59" as="targetPoint" />
          </mxGeometry>
        </mxCell>
        <mxCell id="NsenR0JHLSsDGOoAYdqC-275" value="&lt;div style=&quot;line-height: 80%;&quot;&gt;&lt;font face=&quot;Times New Roman&quot; style=&quot;line-height: 80%; font-size: 11px;&quot;&gt;&lt;i&gt;BLE&lt;/i&gt;&lt;/font&gt;&lt;/div&gt;" style="text;html=1;align=center;verticalAlign=middle;whiteSpace=wrap;rounded=0;container=0;" vertex="1" parent="NsenR0JHLSsDGOoAYdqC-261">
          <mxGeometry x="1" y="2" width="23" height="13" as="geometry" />
        </mxCell>
        <mxCell id="NsenR0JHLSsDGOoAYdqC-276" style="rounded=0;orthogonalLoop=1;jettySize=auto;html=1;entryX=0;entryY=0.5;entryDx=0;entryDy=0;endArrow=none;startFill=0;" edge="1" parent="NsenR0JHLSsDGOoAYdqC-261">
          <mxGeometry relative="1" as="geometry">
            <mxPoint x="10" y="37.5" as="sourcePoint" />
            <mxPoint y="37.5" as="targetPoint" />
          </mxGeometry>
        </mxCell>
        <mxCell id="NsenR0JHLSsDGOoAYdqC-277" value="" style="group" vertex="1" connectable="0" parent="1">
          <mxGeometry x="480" y="220" width="160" height="83" as="geometry" />
        </mxCell>
        <mxCell id="NsenR0JHLSsDGOoAYdqC-278" value="" style="rounded=0;whiteSpace=wrap;html=1;strokeWidth=1;fillColor=#F5F9FC;container=0;" vertex="1" parent="NsenR0JHLSsDGOoAYdqC-277">
          <mxGeometry width="160" height="80" as="geometry" />
        </mxCell>
        <mxCell id="NsenR0JHLSsDGOoAYdqC-279" style="edgeStyle=orthogonalEdgeStyle;rounded=0;orthogonalLoop=1;jettySize=auto;html=1;entryX=0.25;entryY=1;entryDx=0;entryDy=0;endArrow=none;startFill=0;exitX=1;exitY=0.5;exitDx=0;exitDy=0;" edge="1" parent="NsenR0JHLSsDGOoAYdqC-277" source="NsenR0JHLSsDGOoAYdqC-280" target="NsenR0JHLSsDGOoAYdqC-283">
          <mxGeometry relative="1" as="geometry">
            <Array as="points">
              <mxPoint x="60" y="37" />
              <mxPoint x="60" y="10" />
              <mxPoint x="130" y="10" />
              <mxPoint x="130" y="22" />
            </Array>
          </mxGeometry>
        </mxCell>
        <mxCell id="NsenR0JHLSsDGOoAYdqC-280" value="&lt;font face=&quot;Times New Roman&quot;&gt;LUT&lt;/font&gt;" style="rounded=0;whiteSpace=wrap;html=1;fillColor=#D0E2F0;container=0;" vertex="1" parent="NsenR0JHLSsDGOoAYdqC-277">
          <mxGeometry x="10" y="17.75" width="40" height="38.5" as="geometry" />
        </mxCell>
        <mxCell id="NsenR0JHLSsDGOoAYdqC-281" value="&lt;font face=&quot;Times New Roman&quot;&gt;Config.&lt;/font&gt;&lt;div&gt;&lt;font face=&quot;Times New Roman&quot;&gt;Latch&lt;/font&gt;&lt;/div&gt;" style="rounded=0;whiteSpace=wrap;html=1;fillColor=#D6D9EC;container=0;" vertex="1" parent="NsenR0JHLSsDGOoAYdqC-277">
          <mxGeometry x="84" y="14" width="40" height="46" as="geometry" />
        </mxCell>
        <mxCell id="NsenR0JHLSsDGOoAYdqC-282" style="rounded=0;orthogonalLoop=1;jettySize=auto;html=1;entryX=1.001;entryY=0.46;entryDx=0;entryDy=0;endArrow=none;startFill=0;entryPerimeter=0;" edge="1" parent="NsenR0JHLSsDGOoAYdqC-277" source="NsenR0JHLSsDGOoAYdqC-283" target="NsenR0JHLSsDGOoAYdqC-278">
          <mxGeometry relative="1" as="geometry">
            <Array as="points">
              <mxPoint x="160" y="36" />
            </Array>
          </mxGeometry>
        </mxCell>
        <mxCell id="NsenR0JHLSsDGOoAYdqC-283" value="" style="shape=trapezoid;perimeter=trapezoidPerimeter;whiteSpace=wrap;html=1;fixedSize=1;rotation=90;size=15;strokeWidth=1;fillColor=#BDD6F2;strokeColor=#000000;fontFamily=Times New Roman;container=0;" vertex="1" parent="NsenR0JHLSsDGOoAYdqC-277">
          <mxGeometry x="120" y="28.5" width="55" height="15" as="geometry" />
        </mxCell>
        <mxCell id="NsenR0JHLSsDGOoAYdqC-284" style="rounded=0;orthogonalLoop=1;jettySize=auto;html=1;entryX=0.52;entryY=0.965;entryDx=0;entryDy=0;entryPerimeter=0;endArrow=none;startFill=0;" edge="1" parent="NsenR0JHLSsDGOoAYdqC-277" source="NsenR0JHLSsDGOoAYdqC-281" target="NsenR0JHLSsDGOoAYdqC-283">
          <mxGeometry relative="1" as="geometry" />
        </mxCell>
        <mxCell id="NsenR0JHLSsDGOoAYdqC-285" value="" style="triangle;whiteSpace=wrap;html=1;strokeWidth=1;fillColor=light-dark(#f9fafb, #1d293b);strokeColor=#000000;fontFamily=Times New Roman;container=0;" vertex="1" parent="NsenR0JHLSsDGOoAYdqC-277">
          <mxGeometry x="84" y="48" width="10" height="10" as="geometry" />
        </mxCell>
        <mxCell id="NsenR0JHLSsDGOoAYdqC-286" style="rounded=0;orthogonalLoop=1;jettySize=auto;html=1;entryX=0;entryY=0.5;entryDx=0;entryDy=0;endArrow=none;startFill=0;exitX=1;exitY=0.5;exitDx=0;exitDy=0;" edge="1" parent="NsenR0JHLSsDGOoAYdqC-277" source="NsenR0JHLSsDGOoAYdqC-280" target="NsenR0JHLSsDGOoAYdqC-281">
          <mxGeometry relative="1" as="geometry" />
        </mxCell>
        <mxCell id="NsenR0JHLSsDGOoAYdqC-287" value="&lt;div style=&quot;line-height: 80%;&quot;&gt;&lt;font face=&quot;Times New Roman&quot; style=&quot;line-height: 80%; font-size: 8px; color: rgb(0, 102, 0);&quot;&gt;Config. bit:&amp;nbsp;&lt;/font&gt;&lt;div&gt;&lt;span style=&quot;font-family: &amp;quot;Times New Roman&amp;quot;; background-color: transparent; line-height: 80%;&quot;&gt;&lt;font style=&quot;font-size: 8px; color: rgb(0, 102, 0);&quot;&gt;FF/Latch mode&lt;/font&gt;&lt;/span&gt;&lt;/div&gt;&lt;/div&gt;" style="text;html=1;align=center;verticalAlign=middle;whiteSpace=wrap;rounded=0;container=0;" vertex="1" parent="NsenR0JHLSsDGOoAYdqC-277">
          <mxGeometry x="53" y="53" width="80" height="30" as="geometry" />
        </mxCell>
        <mxCell id="NsenR0JHLSsDGOoAYdqC-288" value="" style="endArrow=classic;html=1;rounded=0;strokeColor=#006600;endSize=3;" edge="1" parent="NsenR0JHLSsDGOoAYdqC-277">
          <mxGeometry width="50" height="50" relative="1" as="geometry">
            <mxPoint x="121" y="78" as="sourcePoint" />
            <mxPoint x="121" y="61" as="targetPoint" />
          </mxGeometry>
        </mxCell>
        <mxCell id="NsenR0JHLSsDGOoAYdqC-289" value="&lt;div style=&quot;line-height: 80%;&quot;&gt;&lt;font face=&quot;Times New Roman&quot; style=&quot;line-height: 80%; font-size: 8px;&quot;&gt;&lt;font style=&quot;color: rgb(0, 0, 0);&quot;&gt;Config.&amp;nbsp;&lt;/font&gt;&lt;br&gt;&lt;/font&gt;&lt;/div&gt;" style="text;html=1;align=center;verticalAlign=middle;whiteSpace=wrap;rounded=0;container=0;" vertex="1" parent="NsenR0JHLSsDGOoAYdqC-277">
          <mxGeometry x="1" y="56.25" width="40" height="20" as="geometry" />
        </mxCell>
        <mxCell id="NsenR0JHLSsDGOoAYdqC-290" value="" style="endArrow=classic;html=1;rounded=0;strokeColor=#000000;endSize=3;" edge="1" parent="NsenR0JHLSsDGOoAYdqC-277">
          <mxGeometry width="50" height="50" relative="1" as="geometry">
            <mxPoint x="34" y="76" as="sourcePoint" />
            <mxPoint x="34" y="59" as="targetPoint" />
          </mxGeometry>
        </mxCell>
        <mxCell id="NsenR0JHLSsDGOoAYdqC-291" value="&lt;div style=&quot;line-height: 80%;&quot;&gt;&lt;font face=&quot;Times New Roman&quot; style=&quot;line-height: 80%; font-size: 11px;&quot;&gt;&lt;i&gt;BLE&lt;/i&gt;&lt;/font&gt;&lt;/div&gt;" style="text;html=1;align=center;verticalAlign=middle;whiteSpace=wrap;rounded=0;container=0;" vertex="1" parent="NsenR0JHLSsDGOoAYdqC-277">
          <mxGeometry x="1" y="2" width="23" height="13" as="geometry" />
        </mxCell>
        <mxCell id="NsenR0JHLSsDGOoAYdqC-292" style="rounded=0;orthogonalLoop=1;jettySize=auto;html=1;entryX=0;entryY=0.5;entryDx=0;entryDy=0;endArrow=none;startFill=0;" edge="1" parent="NsenR0JHLSsDGOoAYdqC-277">
          <mxGeometry relative="1" as="geometry">
            <mxPoint x="10" y="37.5" as="sourcePoint" />
            <mxPoint y="37.5" as="targetPoint" />
          </mxGeometry>
        </mxCell>
        <mxCell id="NsenR0JHLSsDGOoAYdqC-293" value="" style="group" vertex="1" connectable="0" parent="1">
          <mxGeometry x="480" y="340" width="180" height="280" as="geometry" />
        </mxCell>
        <mxCell id="NsenR0JHLSsDGOoAYdqC-294" value="" style="rounded=0;whiteSpace=wrap;html=1;" vertex="1" parent="NsenR0JHLSsDGOoAYdqC-293">
          <mxGeometry x="-10" y="-16.5" width="190" height="296.5" as="geometry" />
        </mxCell>
        <mxCell id="NsenR0JHLSsDGOoAYdqC-295" value="" style="rounded=0;whiteSpace=wrap;html=1;strokeWidth=1;fillColor=#F5F9FC;container=0;" vertex="1" parent="NsenR0JHLSsDGOoAYdqC-293">
          <mxGeometry width="160" height="80" as="geometry" />
        </mxCell>
        <mxCell id="NsenR0JHLSsDGOoAYdqC-296" style="edgeStyle=orthogonalEdgeStyle;rounded=0;orthogonalLoop=1;jettySize=auto;html=1;entryX=0.25;entryY=1;entryDx=0;entryDy=0;endArrow=none;startFill=0;exitX=1;exitY=0.5;exitDx=0;exitDy=0;" edge="1" parent="NsenR0JHLSsDGOoAYdqC-293" source="NsenR0JHLSsDGOoAYdqC-297" target="NsenR0JHLSsDGOoAYdqC-300">
          <mxGeometry relative="1" as="geometry">
            <Array as="points">
              <mxPoint x="60" y="37" />
              <mxPoint x="60" y="10" />
              <mxPoint x="130" y="10" />
              <mxPoint x="130" y="22" />
            </Array>
          </mxGeometry>
        </mxCell>
        <mxCell id="NsenR0JHLSsDGOoAYdqC-297" value="&lt;font face=&quot;Times New Roman&quot;&gt;LUT&lt;/font&gt;" style="rounded=0;whiteSpace=wrap;html=1;fillColor=#D0E2F0;container=0;" vertex="1" parent="NsenR0JHLSsDGOoAYdqC-293">
          <mxGeometry x="10" y="17.75" width="40" height="38.5" as="geometry" />
        </mxCell>
        <mxCell id="NsenR0JHLSsDGOoAYdqC-298" value="&lt;font face=&quot;Times New Roman&quot;&gt;Config.&lt;/font&gt;&lt;div&gt;&lt;font face=&quot;Times New Roman&quot;&gt;Latch&lt;/font&gt;&lt;/div&gt;" style="rounded=0;whiteSpace=wrap;html=1;fillColor=#D6D9EC;container=0;" vertex="1" parent="NsenR0JHLSsDGOoAYdqC-293">
          <mxGeometry x="84" y="14" width="40" height="46" as="geometry" />
        </mxCell>
        <mxCell id="NsenR0JHLSsDGOoAYdqC-299" style="rounded=0;orthogonalLoop=1;jettySize=auto;html=1;entryX=1.001;entryY=0.46;entryDx=0;entryDy=0;endArrow=none;startFill=0;entryPerimeter=0;" edge="1" parent="NsenR0JHLSsDGOoAYdqC-293" source="NsenR0JHLSsDGOoAYdqC-300" target="NsenR0JHLSsDGOoAYdqC-295">
          <mxGeometry relative="1" as="geometry">
            <Array as="points">
              <mxPoint x="160" y="36" />
            </Array>
          </mxGeometry>
        </mxCell>
        <mxCell id="NsenR0JHLSsDGOoAYdqC-300" value="" style="shape=trapezoid;perimeter=trapezoidPerimeter;whiteSpace=wrap;html=1;fixedSize=1;rotation=90;size=15;strokeWidth=1;fillColor=#BDD6F2;strokeColor=#000000;fontFamily=Times New Roman;container=0;" vertex="1" parent="NsenR0JHLSsDGOoAYdqC-293">
          <mxGeometry x="120" y="28.5" width="55" height="15" as="geometry" />
        </mxCell>
        <mxCell id="NsenR0JHLSsDGOoAYdqC-301" style="rounded=0;orthogonalLoop=1;jettySize=auto;html=1;entryX=0.52;entryY=0.965;entryDx=0;entryDy=0;entryPerimeter=0;endArrow=none;startFill=0;" edge="1" parent="NsenR0JHLSsDGOoAYdqC-293" source="NsenR0JHLSsDGOoAYdqC-298" target="NsenR0JHLSsDGOoAYdqC-300">
          <mxGeometry relative="1" as="geometry" />
        </mxCell>
        <mxCell id="NsenR0JHLSsDGOoAYdqC-302" value="" style="triangle;whiteSpace=wrap;html=1;strokeWidth=1;fillColor=light-dark(#f9fafb, #1d293b);strokeColor=#000000;fontFamily=Times New Roman;container=0;" vertex="1" parent="NsenR0JHLSsDGOoAYdqC-293">
          <mxGeometry x="84" y="48" width="10" height="10" as="geometry" />
        </mxCell>
        <mxCell id="NsenR0JHLSsDGOoAYdqC-303" style="rounded=0;orthogonalLoop=1;jettySize=auto;html=1;entryX=0;entryY=0.5;entryDx=0;entryDy=0;endArrow=none;startFill=0;exitX=1;exitY=0.5;exitDx=0;exitDy=0;" edge="1" parent="NsenR0JHLSsDGOoAYdqC-293" source="NsenR0JHLSsDGOoAYdqC-297" target="NsenR0JHLSsDGOoAYdqC-298">
          <mxGeometry relative="1" as="geometry" />
        </mxCell>
        <mxCell id="NsenR0JHLSsDGOoAYdqC-304" value="&lt;div style=&quot;line-height: 80%;&quot;&gt;&lt;font face=&quot;Times New Roman&quot; style=&quot;line-height: 80%; font-size: 8px; color: rgb(0, 102, 0);&quot;&gt;Config. bit:&amp;nbsp;&lt;/font&gt;&lt;div&gt;&lt;span style=&quot;font-family: &amp;quot;Times New Roman&amp;quot;; background-color: transparent; line-height: 80%;&quot;&gt;&lt;font style=&quot;font-size: 8px; color: rgb(0, 102, 0);&quot;&gt;FF/Latch mode&lt;/font&gt;&lt;/span&gt;&lt;/div&gt;&lt;/div&gt;" style="text;html=1;align=center;verticalAlign=middle;whiteSpace=wrap;rounded=0;container=0;" vertex="1" parent="NsenR0JHLSsDGOoAYdqC-293">
          <mxGeometry x="53" y="53" width="80" height="30" as="geometry" />
        </mxCell>
        <mxCell id="NsenR0JHLSsDGOoAYdqC-305" value="" style="endArrow=classic;html=1;rounded=0;strokeColor=#006600;endSize=3;" edge="1" parent="NsenR0JHLSsDGOoAYdqC-293">
          <mxGeometry width="50" height="50" relative="1" as="geometry">
            <mxPoint x="121" y="78" as="sourcePoint" />
            <mxPoint x="121" y="61" as="targetPoint" />
          </mxGeometry>
        </mxCell>
        <mxCell id="NsenR0JHLSsDGOoAYdqC-306" value="&lt;div style=&quot;line-height: 80%;&quot;&gt;&lt;font face=&quot;Times New Roman&quot; style=&quot;line-height: 80%; font-size: 8px;&quot;&gt;&lt;font style=&quot;color: rgb(0, 0, 0);&quot;&gt;Config.&amp;nbsp;&lt;/font&gt;&lt;br&gt;&lt;/font&gt;&lt;/div&gt;" style="text;html=1;align=center;verticalAlign=middle;whiteSpace=wrap;rounded=0;container=0;" vertex="1" parent="NsenR0JHLSsDGOoAYdqC-293">
          <mxGeometry x="1" y="56.25" width="40" height="20" as="geometry" />
        </mxCell>
        <mxCell id="NsenR0JHLSsDGOoAYdqC-307" value="" style="endArrow=classic;html=1;rounded=0;strokeColor=#000000;endSize=3;" edge="1" parent="NsenR0JHLSsDGOoAYdqC-293">
          <mxGeometry width="50" height="50" relative="1" as="geometry">
            <mxPoint x="34" y="76" as="sourcePoint" />
            <mxPoint x="34" y="59" as="targetPoint" />
          </mxGeometry>
        </mxCell>
        <mxCell id="NsenR0JHLSsDGOoAYdqC-308" value="&lt;div style=&quot;line-height: 80%;&quot;&gt;&lt;font face=&quot;Times New Roman&quot; style=&quot;line-height: 80%; font-size: 11px;&quot;&gt;&lt;i&gt;BLE&lt;/i&gt;&lt;/font&gt;&lt;/div&gt;" style="text;html=1;align=center;verticalAlign=middle;whiteSpace=wrap;rounded=0;container=0;" vertex="1" parent="NsenR0JHLSsDGOoAYdqC-293">
          <mxGeometry x="1" y="2" width="23" height="13" as="geometry" />
        </mxCell>
        <mxCell id="NsenR0JHLSsDGOoAYdqC-309" style="rounded=0;orthogonalLoop=1;jettySize=auto;html=1;entryX=0;entryY=0.5;entryDx=0;entryDy=0;endArrow=none;startFill=0;" edge="1" parent="NsenR0JHLSsDGOoAYdqC-293">
          <mxGeometry relative="1" as="geometry">
            <mxPoint x="10" y="37.5" as="sourcePoint" />
            <mxPoint y="37.5" as="targetPoint" />
          </mxGeometry>
        </mxCell>
        <mxCell id="NsenR0JHLSsDGOoAYdqC-310" value="&lt;div style=&quot;line-height: 80%;&quot;&gt;&lt;font face=&quot;Times New Roman&quot; style=&quot;line-height: 80%;&quot;&gt;&lt;font style=&quot;color: rgb(0, 0, 0); font-size: 14px;&quot;&gt;&lt;b&gt;......&lt;/b&gt;&lt;/font&gt;&lt;br&gt;&lt;/font&gt;&lt;/div&gt;" style="text;html=1;align=center;verticalAlign=middle;whiteSpace=wrap;rounded=0;container=0;" vertex="1" parent="NsenR0JHLSsDGOoAYdqC-293">
          <mxGeometry x="60" y="170" width="40" height="20" as="geometry" />
        </mxCell>
        <mxCell id="NsenR0JHLSsDGOoAYdqC-311" value="" style="group" vertex="1" connectable="0" parent="1">
          <mxGeometry x="480" y="430" width="160" height="83" as="geometry" />
        </mxCell>
        <mxCell id="NsenR0JHLSsDGOoAYdqC-312" value="" style="rounded=0;whiteSpace=wrap;html=1;strokeWidth=1;fillColor=#F5F9FC;container=0;" vertex="1" parent="NsenR0JHLSsDGOoAYdqC-311">
          <mxGeometry width="160" height="80" as="geometry" />
        </mxCell>
        <mxCell id="NsenR0JHLSsDGOoAYdqC-313" style="edgeStyle=orthogonalEdgeStyle;rounded=0;orthogonalLoop=1;jettySize=auto;html=1;entryX=0.25;entryY=1;entryDx=0;entryDy=0;endArrow=none;startFill=0;exitX=1;exitY=0.5;exitDx=0;exitDy=0;" edge="1" parent="NsenR0JHLSsDGOoAYdqC-311" source="NsenR0JHLSsDGOoAYdqC-314" target="NsenR0JHLSsDGOoAYdqC-317">
          <mxGeometry relative="1" as="geometry">
            <Array as="points">
              <mxPoint x="60" y="37" />
              <mxPoint x="60" y="10" />
              <mxPoint x="130" y="10" />
              <mxPoint x="130" y="22" />
            </Array>
          </mxGeometry>
        </mxCell>
        <mxCell id="NsenR0JHLSsDGOoAYdqC-314" value="&lt;font face=&quot;Times New Roman&quot;&gt;LUT&lt;/font&gt;" style="rounded=0;whiteSpace=wrap;html=1;fillColor=#D0E2F0;container=0;" vertex="1" parent="NsenR0JHLSsDGOoAYdqC-311">
          <mxGeometry x="10" y="17.75" width="40" height="38.5" as="geometry" />
        </mxCell>
        <mxCell id="NsenR0JHLSsDGOoAYdqC-315" value="&lt;font face=&quot;Times New Roman&quot;&gt;Config.&lt;/font&gt;&lt;div&gt;&lt;font face=&quot;Times New Roman&quot;&gt;Latch&lt;/font&gt;&lt;/div&gt;" style="rounded=0;whiteSpace=wrap;html=1;fillColor=#D6D9EC;container=0;" vertex="1" parent="NsenR0JHLSsDGOoAYdqC-311">
          <mxGeometry x="84" y="14" width="40" height="46" as="geometry" />
        </mxCell>
        <mxCell id="NsenR0JHLSsDGOoAYdqC-316" style="rounded=0;orthogonalLoop=1;jettySize=auto;html=1;entryX=1.001;entryY=0.46;entryDx=0;entryDy=0;endArrow=none;startFill=0;entryPerimeter=0;" edge="1" parent="NsenR0JHLSsDGOoAYdqC-311" source="NsenR0JHLSsDGOoAYdqC-317" target="NsenR0JHLSsDGOoAYdqC-312">
          <mxGeometry relative="1" as="geometry">
            <Array as="points">
              <mxPoint x="160" y="36" />
            </Array>
          </mxGeometry>
        </mxCell>
        <mxCell id="NsenR0JHLSsDGOoAYdqC-317" value="" style="shape=trapezoid;perimeter=trapezoidPerimeter;whiteSpace=wrap;html=1;fixedSize=1;rotation=90;size=15;strokeWidth=1;fillColor=#BDD6F2;strokeColor=#000000;fontFamily=Times New Roman;container=0;" vertex="1" parent="NsenR0JHLSsDGOoAYdqC-311">
          <mxGeometry x="120" y="28.5" width="55" height="15" as="geometry" />
        </mxCell>
        <mxCell id="NsenR0JHLSsDGOoAYdqC-318" style="rounded=0;orthogonalLoop=1;jettySize=auto;html=1;entryX=0.52;entryY=0.965;entryDx=0;entryDy=0;entryPerimeter=0;endArrow=none;startFill=0;" edge="1" parent="NsenR0JHLSsDGOoAYdqC-311" source="NsenR0JHLSsDGOoAYdqC-315" target="NsenR0JHLSsDGOoAYdqC-317">
          <mxGeometry relative="1" as="geometry" />
        </mxCell>
        <mxCell id="NsenR0JHLSsDGOoAYdqC-319" value="" style="triangle;whiteSpace=wrap;html=1;strokeWidth=1;fillColor=light-dark(#f9fafb, #1d293b);strokeColor=#000000;fontFamily=Times New Roman;container=0;" vertex="1" parent="NsenR0JHLSsDGOoAYdqC-311">
          <mxGeometry x="84" y="48" width="10" height="10" as="geometry" />
        </mxCell>
        <mxCell id="NsenR0JHLSsDGOoAYdqC-320" style="rounded=0;orthogonalLoop=1;jettySize=auto;html=1;entryX=0;entryY=0.5;entryDx=0;entryDy=0;endArrow=none;startFill=0;exitX=1;exitY=0.5;exitDx=0;exitDy=0;" edge="1" parent="NsenR0JHLSsDGOoAYdqC-311" source="NsenR0JHLSsDGOoAYdqC-314" target="NsenR0JHLSsDGOoAYdqC-315">
          <mxGeometry relative="1" as="geometry" />
        </mxCell>
        <mxCell id="NsenR0JHLSsDGOoAYdqC-321" value="&lt;div style=&quot;line-height: 80%;&quot;&gt;&lt;font face=&quot;Times New Roman&quot; style=&quot;line-height: 80%; font-size: 8px; color: rgb(0, 102, 0);&quot;&gt;Config. bit:&amp;nbsp;&lt;/font&gt;&lt;div&gt;&lt;span style=&quot;font-family: &amp;quot;Times New Roman&amp;quot;; background-color: transparent; line-height: 80%;&quot;&gt;&lt;font style=&quot;font-size: 8px; color: rgb(0, 102, 0);&quot;&gt;FF/Latch mode&lt;/font&gt;&lt;/span&gt;&lt;/div&gt;&lt;/div&gt;" style="text;html=1;align=center;verticalAlign=middle;whiteSpace=wrap;rounded=0;container=0;" vertex="1" parent="NsenR0JHLSsDGOoAYdqC-311">
          <mxGeometry x="53" y="53" width="80" height="30" as="geometry" />
        </mxCell>
        <mxCell id="NsenR0JHLSsDGOoAYdqC-322" value="" style="endArrow=classic;html=1;rounded=0;strokeColor=#006600;endSize=3;" edge="1" parent="NsenR0JHLSsDGOoAYdqC-311">
          <mxGeometry width="50" height="50" relative="1" as="geometry">
            <mxPoint x="121" y="78" as="sourcePoint" />
            <mxPoint x="121" y="61" as="targetPoint" />
          </mxGeometry>
        </mxCell>
        <mxCell id="NsenR0JHLSsDGOoAYdqC-323" value="&lt;div style=&quot;line-height: 80%;&quot;&gt;&lt;font face=&quot;Times New Roman&quot; style=&quot;line-height: 80%; font-size: 8px;&quot;&gt;&lt;font style=&quot;color: rgb(0, 0, 0);&quot;&gt;Config.&amp;nbsp;&lt;/font&gt;&lt;br&gt;&lt;/font&gt;&lt;/div&gt;" style="text;html=1;align=center;verticalAlign=middle;whiteSpace=wrap;rounded=0;container=0;" vertex="1" parent="NsenR0JHLSsDGOoAYdqC-311">
          <mxGeometry x="1" y="56.25" width="40" height="20" as="geometry" />
        </mxCell>
        <mxCell id="NsenR0JHLSsDGOoAYdqC-324" value="" style="endArrow=classic;html=1;rounded=0;strokeColor=#000000;endSize=3;" edge="1" parent="NsenR0JHLSsDGOoAYdqC-311">
          <mxGeometry width="50" height="50" relative="1" as="geometry">
            <mxPoint x="34" y="76" as="sourcePoint" />
            <mxPoint x="34" y="59" as="targetPoint" />
          </mxGeometry>
        </mxCell>
        <mxCell id="NsenR0JHLSsDGOoAYdqC-325" value="&lt;div style=&quot;line-height: 80%;&quot;&gt;&lt;font face=&quot;Times New Roman&quot; style=&quot;line-height: 80%; font-size: 11px;&quot;&gt;&lt;i&gt;BLE&lt;/i&gt;&lt;/font&gt;&lt;/div&gt;" style="text;html=1;align=center;verticalAlign=middle;whiteSpace=wrap;rounded=0;container=0;" vertex="1" parent="NsenR0JHLSsDGOoAYdqC-311">
          <mxGeometry x="1" y="2" width="23" height="13" as="geometry" />
        </mxCell>
        <mxCell id="NsenR0JHLSsDGOoAYdqC-326" style="rounded=0;orthogonalLoop=1;jettySize=auto;html=1;entryX=0;entryY=0.5;entryDx=0;entryDy=0;endArrow=none;startFill=0;" edge="1" parent="NsenR0JHLSsDGOoAYdqC-311">
          <mxGeometry relative="1" as="geometry">
            <mxPoint x="10" y="37.5" as="sourcePoint" />
            <mxPoint y="37.5" as="targetPoint" />
          </mxGeometry>
        </mxCell>
        <mxCell id="NsenR0JHLSsDGOoAYdqC-327" value="" style="group" vertex="1" connectable="0" parent="1">
          <mxGeometry x="480" y="530" width="160" height="83" as="geometry" />
        </mxCell>
        <mxCell id="NsenR0JHLSsDGOoAYdqC-328" value="" style="rounded=0;whiteSpace=wrap;html=1;strokeWidth=1;fillColor=#F5F9FC;container=0;" vertex="1" parent="NsenR0JHLSsDGOoAYdqC-327">
          <mxGeometry width="160" height="80" as="geometry" />
        </mxCell>
        <mxCell id="NsenR0JHLSsDGOoAYdqC-329" style="edgeStyle=orthogonalEdgeStyle;rounded=0;orthogonalLoop=1;jettySize=auto;html=1;entryX=0.25;entryY=1;entryDx=0;entryDy=0;endArrow=none;startFill=0;exitX=1;exitY=0.5;exitDx=0;exitDy=0;" edge="1" parent="NsenR0JHLSsDGOoAYdqC-327" source="NsenR0JHLSsDGOoAYdqC-330" target="NsenR0JHLSsDGOoAYdqC-333">
          <mxGeometry relative="1" as="geometry">
            <Array as="points">
              <mxPoint x="60" y="37" />
              <mxPoint x="60" y="10" />
              <mxPoint x="130" y="10" />
              <mxPoint x="130" y="22" />
            </Array>
          </mxGeometry>
        </mxCell>
        <mxCell id="NsenR0JHLSsDGOoAYdqC-330" value="&lt;font face=&quot;Times New Roman&quot;&gt;LUT&lt;/font&gt;" style="rounded=0;whiteSpace=wrap;html=1;fillColor=#D0E2F0;container=0;" vertex="1" parent="NsenR0JHLSsDGOoAYdqC-327">
          <mxGeometry x="10" y="17.75" width="40" height="38.5" as="geometry" />
        </mxCell>
        <mxCell id="NsenR0JHLSsDGOoAYdqC-331" value="&lt;font face=&quot;Times New Roman&quot;&gt;Config.&lt;/font&gt;&lt;div&gt;&lt;font face=&quot;Times New Roman&quot;&gt;Latch&lt;/font&gt;&lt;/div&gt;" style="rounded=0;whiteSpace=wrap;html=1;fillColor=#D6D9EC;container=0;" vertex="1" parent="NsenR0JHLSsDGOoAYdqC-327">
          <mxGeometry x="84" y="14" width="40" height="46" as="geometry" />
        </mxCell>
        <mxCell id="NsenR0JHLSsDGOoAYdqC-332" style="rounded=0;orthogonalLoop=1;jettySize=auto;html=1;entryX=1.001;entryY=0.46;entryDx=0;entryDy=0;endArrow=none;startFill=0;entryPerimeter=0;" edge="1" parent="NsenR0JHLSsDGOoAYdqC-327" source="NsenR0JHLSsDGOoAYdqC-333" target="NsenR0JHLSsDGOoAYdqC-328">
          <mxGeometry relative="1" as="geometry">
            <Array as="points">
              <mxPoint x="160" y="36" />
            </Array>
          </mxGeometry>
        </mxCell>
        <mxCell id="NsenR0JHLSsDGOoAYdqC-333" value="" style="shape=trapezoid;perimeter=trapezoidPerimeter;whiteSpace=wrap;html=1;fixedSize=1;rotation=90;size=15;strokeWidth=1;fillColor=#BDD6F2;strokeColor=#000000;fontFamily=Times New Roman;container=0;" vertex="1" parent="NsenR0JHLSsDGOoAYdqC-327">
          <mxGeometry x="120" y="28.5" width="55" height="15" as="geometry" />
        </mxCell>
        <mxCell id="NsenR0JHLSsDGOoAYdqC-334" style="rounded=0;orthogonalLoop=1;jettySize=auto;html=1;entryX=0.52;entryY=0.965;entryDx=0;entryDy=0;entryPerimeter=0;endArrow=none;startFill=0;" edge="1" parent="NsenR0JHLSsDGOoAYdqC-327" source="NsenR0JHLSsDGOoAYdqC-331" target="NsenR0JHLSsDGOoAYdqC-333">
          <mxGeometry relative="1" as="geometry" />
        </mxCell>
        <mxCell id="NsenR0JHLSsDGOoAYdqC-335" value="" style="triangle;whiteSpace=wrap;html=1;strokeWidth=1;fillColor=light-dark(#f9fafb, #1d293b);strokeColor=#000000;fontFamily=Times New Roman;container=0;" vertex="1" parent="NsenR0JHLSsDGOoAYdqC-327">
          <mxGeometry x="84" y="48" width="10" height="10" as="geometry" />
        </mxCell>
        <mxCell id="NsenR0JHLSsDGOoAYdqC-336" style="rounded=0;orthogonalLoop=1;jettySize=auto;html=1;entryX=0;entryY=0.5;entryDx=0;entryDy=0;endArrow=none;startFill=0;exitX=1;exitY=0.5;exitDx=0;exitDy=0;" edge="1" parent="NsenR0JHLSsDGOoAYdqC-327" source="NsenR0JHLSsDGOoAYdqC-330" target="NsenR0JHLSsDGOoAYdqC-331">
          <mxGeometry relative="1" as="geometry" />
        </mxCell>
        <mxCell id="NsenR0JHLSsDGOoAYdqC-337" value="&lt;div style=&quot;line-height: 80%;&quot;&gt;&lt;font face=&quot;Times New Roman&quot; style=&quot;line-height: 80%; font-size: 8px; color: rgb(0, 102, 0);&quot;&gt;Config. bit:&amp;nbsp;&lt;/font&gt;&lt;div&gt;&lt;span style=&quot;font-family: &amp;quot;Times New Roman&amp;quot;; background-color: transparent; line-height: 80%;&quot;&gt;&lt;font style=&quot;font-size: 8px; color: rgb(0, 102, 0);&quot;&gt;FF/Latch mode&lt;/font&gt;&lt;/span&gt;&lt;/div&gt;&lt;/div&gt;" style="text;html=1;align=center;verticalAlign=middle;whiteSpace=wrap;rounded=0;container=0;" vertex="1" parent="NsenR0JHLSsDGOoAYdqC-327">
          <mxGeometry x="53" y="53" width="80" height="30" as="geometry" />
        </mxCell>
        <mxCell id="NsenR0JHLSsDGOoAYdqC-338" value="" style="endArrow=classic;html=1;rounded=0;strokeColor=#006600;endSize=3;" edge="1" parent="NsenR0JHLSsDGOoAYdqC-327">
          <mxGeometry width="50" height="50" relative="1" as="geometry">
            <mxPoint x="121" y="78" as="sourcePoint" />
            <mxPoint x="121" y="61" as="targetPoint" />
          </mxGeometry>
        </mxCell>
        <mxCell id="NsenR0JHLSsDGOoAYdqC-339" value="&lt;div style=&quot;line-height: 80%;&quot;&gt;&lt;font face=&quot;Times New Roman&quot; style=&quot;line-height: 80%; font-size: 8px;&quot;&gt;&lt;font style=&quot;color: rgb(0, 0, 0);&quot;&gt;Config.&amp;nbsp;&lt;/font&gt;&lt;br&gt;&lt;/font&gt;&lt;/div&gt;" style="text;html=1;align=center;verticalAlign=middle;whiteSpace=wrap;rounded=0;container=0;" vertex="1" parent="NsenR0JHLSsDGOoAYdqC-327">
          <mxGeometry x="1" y="56.25" width="40" height="20" as="geometry" />
        </mxCell>
        <mxCell id="NsenR0JHLSsDGOoAYdqC-340" value="" style="endArrow=classic;html=1;rounded=0;strokeColor=#000000;endSize=3;" edge="1" parent="NsenR0JHLSsDGOoAYdqC-327">
          <mxGeometry width="50" height="50" relative="1" as="geometry">
            <mxPoint x="34" y="76" as="sourcePoint" />
            <mxPoint x="34" y="59" as="targetPoint" />
          </mxGeometry>
        </mxCell>
        <mxCell id="NsenR0JHLSsDGOoAYdqC-341" value="&lt;div style=&quot;line-height: 80%;&quot;&gt;&lt;font face=&quot;Times New Roman&quot; style=&quot;line-height: 80%; font-size: 11px;&quot;&gt;&lt;i&gt;BLE&lt;/i&gt;&lt;/font&gt;&lt;/div&gt;" style="text;html=1;align=center;verticalAlign=middle;whiteSpace=wrap;rounded=0;container=0;" vertex="1" parent="NsenR0JHLSsDGOoAYdqC-327">
          <mxGeometry x="1" y="2" width="23" height="13" as="geometry" />
        </mxCell>
        <mxCell id="NsenR0JHLSsDGOoAYdqC-342" style="rounded=0;orthogonalLoop=1;jettySize=auto;html=1;entryX=0;entryY=0.5;entryDx=0;entryDy=0;endArrow=none;startFill=0;" edge="1" parent="NsenR0JHLSsDGOoAYdqC-327">
          <mxGeometry relative="1" as="geometry">
            <mxPoint x="10" y="37.5" as="sourcePoint" />
            <mxPoint y="37.5" as="targetPoint" />
          </mxGeometry>
        </mxCell>
      </root>
    </mxGraphModel>
  </diagram>
</mxfile>
